<svg id="Layer_1" data-name="Layer 1" xmlns="http://www.w3.org/2000/svg" viewBox="0 0 348.91 38.14"><defs><style>.cls-1{fill:#d98a11;}.cls-2{fill:#fff;}</style></defs><title>stuart-adams-colour</title><path class="cls-1" d="M132.78,5.94l0,0.26-0.32.42-0.77.74-0.1.26-0.68.61-0.26.48-0.19.9-0.19,1-0.23,1-0.19-.13-0.23-.61V10.62l-0.1-.36,0.1-.23V9.65l0.16-.23,0.26-.9L130.23,8l0.55-.81,0.39-.48,0.23-.13,0.07-.23,0.23-.06L132,5.94h0.16V5.87h0.13V5.81l0.23,0,0.26,0.1Zm8.91,23.33,0,0.26-0.32.32-0.74.29-0.74,0-0.52.13-0.55,0-0.58-.19-0.39.19-0.52,0L136.24,30l-0.52-.22-0.19-.29,0-.13,0.26-.06,1,0.19,0.71,0.1v0.06L138,29.75l0.1,0.1,0.52-.16,1,0,1-.29,0.52-.1,0.23-.1,0-.06h0.13l0.1,0.13Zm9.81-21h0.06l0.06,0.13-0.06.23,0.06,0.52-0.1.52-0.16.45-0.1.55L151,11l-0.19.48-0.58.74-0.16.52-0.23.45-0.65.74-0.61.81-1.13,1.13-0.32.19-0.39.35-0.19.07-0.84.58-0.29.29-0.87.39-0.52.19-0.39.29-0.23,0-0.19.19-0.87.06-0.81.42-1,.19-0.26,0-0.19.13-1,0-1,.13-0.55.06-0.39.23-0.13.16-0.19.71-0.16.16-0.13.87-0.1,1.16-0.06.55-0.1.23-0.32.26-0.26-.45,0.06-1,0.13-1,0.26-1.07V20l0.32-.39,0.42-.65,0.23-.13,0.39-.06h1.19l1-.16,1-.23,1-.29,1-.29,0.68-.19v-0.1l0.19,0,0.9-.52,0.87-.48,0.29-.29,0.32-.13L146,16h0.13l0.06-.13,0.16,0,0.06-.16,0.19,0,0.39-.39,0.29-.39,0.77-.74,0.36-.48,0.45-.45,0-.19,0.81-.81,0.1-.39,0.42-.74,0.19-.52,0-.26,0.32-.48L151,8.94l0.19-.29,0.13-.06,0.1-.32ZM136.43,24.3v0.16l-0.13.26h-0.16l-0.29-.23,0-.32L136,24h0.19l0.16,0.19Zm2-9.94,0.29,0.13v0.13l-0.13.26-0.06.39-0.29.26-0.39-.16V15.2l0.26-.23,0.29-.55Zm8.2-9.23-0.16.23-1,.1-0.9.58-0.71.55,0,0.1h-0.16l-0.06.23-0.36.36-0.29.45h-0.07l-0.1.19-0.61.58-0.1.23-0.16.16-0.13.35-0.52.39,0,0.13-0.36.35-0.13.48-0.29.68-0.16.23-0.06.23-0.45.39-0.06.48-0.13.23V13l-0.29.29,0,0.19-0.32.19,0,0.13-0.06,0-0.06.26-0.1-.07,0-1,0.23-.42,0.1-.23,0.16-.13V12.17l0.16-.06,0.13-.45,0.1-.13,0.13-.52,0.26-.48,0.26-.32,0.07-.26,0.16-.13V9.68l0.13-.06,0.07-.26,0.1-.13,0-.23,0.39-.42V8.49l0.77-.74,0.29-.55,0.65-.71,0.19-.16,0.1-.23,0.58-.45,0.16-.26,0.65-.32h0.13V5l0.52-.23,0.42-.1,0.55,0,0.26,0.1L146.59,5v0.1Zm4.68,15.13,0.13,0.23-0.06.36-0.1.1,0,0.19h-0.1V21.3H151v0.13H151l-0.19.36-0.19.16-0.1.23-0.19.16-0.16.61-0.26.45-0.36.39v0.06l-0.45.26-0.65.48v0.29l-0.1.23-0.19.13-0.32.06v0.13l-0.1.07-0.19.42-0.29.42-0.39.35-0.45.26-0.16.19-0.19,0-0.19.26h-0.1l-0.55.58-0.23.07-0.42.32-0.32.13-0.19.19-0.23.06-0.29.26h-0.16l-0.06.13-0.58.29-0.23-.1-0.06-.1-0.35.13V29.27l0.16-.19,0.26-.1,0-.1,0.81-.61,0.87-.35,0.19-.16,0.23-.06L145.4,27l0.26-.39h0.13l0.23-.29,0.23-.06,0.65-.68h0.06V25.53h0.42l0.23-.13,0.1-.19,0-.26,0.55-.78,0.23-.1,0.06-.36,0.39-.35,0.55-.87,0.39-.48,0.13-.36,0.13,0,0.16-.32,0.1-.06,0.19-.52,0.13-.06,0.1-.23,0.23-.1V20.27h0.23ZM151,4h0.23l0.19,0.48,0.23,0.29,0.16,1L152,6.58l-0.1.52V7.65l-0.06.26-0.16.16-0.16,0-0.23-.29-0.06-1,0.1-.32-0.06-.1-0.07-1,0.06-.52,0-.23L151,4.42,151,4.29l0-.19Z" transform="translate(-0.63)"/><path class="cls-1" d="M154.84,17.27l-0.13.52-0.29.81-0.29.87H154v0.16H154v0.13H153.9v0.16h-0.1l-0.42.94-0.06.39-0.1.06-0.32,1-0.19.42-0.16.55-0.32.68-0.36,1-0.42.9-0.45.94-0.23.87-0.26.48-0.55.45-1-.13-1,.1h-0.61L147,28.4l-0.13-.16,0-.26,0.06-.1,0.19-.06,1.26,0.06,0.55,0,0.45-.06,0.35-.26,0.32-.39,0.1-.39,0.13-.19V26.4l0.36-.58V25.69l0.35-.87,0.29-.36,0-.16h0.06V24.14h0.06l0.29-.94,0.32-1,0.16-.52,0.26-.42,0.35-.94L153,20.2l0.13-.48,0.16-.1V19.11l0.39-.87,0-.23,0.26-.55,0.55-.48,0.23,0.29h0.06Zm3.23-2.55-0.94.45-0.45.26-0.29.26-0.48.22-0.81.61-0.16.35-0.16,0-0.16-.42V16.23l0.71-.77,0.74-.52,0.68-.55,0.23,0,0.13-.16,0.23-.06,0.1-.1,0.35,0V13.94h0.52l0.26,0.1,0.16,0.19,0,0.26-0.16.13-0.39.06Zm1.39-8.84-0.16.52L159,7.07l-0.48.42L158.55,8l-0.06.45-0.19.32L158,9.58,158,9.84l-0.32.23,0,0.26-0.29.26-0.13,0v1l-0.1.06,0,0.23-0.32.42-0.36.1-0.16-.39,0.06-.23,0.16-.13,0.23-.81,0.26-.26,0.16,0,0-.26,0.16-.39V9.68l0.26-.29,0.1-.55,0.16-.48,0.55-.81,0.13-.23L158.36,7l0.06-.55L159,5.58l0.29,0.07,0.13,0.19Zm9.07,14.68-0.13.48-0.45.87-0.35.39-0.13.23-0.19.16-0.29.64-0.61.87-0.65.77-0.26.48-0.42.32-0.65.77-0.36.39-0.42.26-0.16.23h-0.13v0.06h-0.16l-0.58.52h-0.13l-0.16.23h-0.13L162,28.4l-0.55.19-0.61,0-0.42.23-0.48.1h-0.39l-0.84-.16-0.1-.13-0.23.06-0.06-.1,0-.29,1,0h1.1l0.19,0,0.87-.58,0.9-.48,0.87-.58,0.65-.39,0.26-.48,0.32-.39,0.19-.35,0.23-.13,0.1-.26,0.29-.23,0.13-.26,0.13-.06,0-.19,0.52-.58,0-.19,0.32-.23,0-.19,0.19-.13,0-.26,0.1-.06,0.26-.58,0.32-.39,0.1-.26,0.19-.16,0.1-.23,0.36-.19,0.29,0.16Zm-4.91-7.74,0.19,0.13,0.06,0.52-0.06,1-0.13,1-0.29.74-0.1.48-0.36.94-0.16.48-0.19.19v0.23l-0.1.1-0.23.77-0.26.45V20l-0.1.1,0,0.19h-0.1l-0.13.39-0.16.13-0.29,1-0.32.94-0.16.16-0.23.71-0.1.07v0.1l-0.1.1,0,0.19-0.16.19-0.23,0-0.1-.74,0.45-.71,0.13-.23,0.19-1,0-.19,0.19-.32,0.16-.74,0.39-.81,0.16-.48,0.16-.16,0.06-.36,0.1-.1,0.36-1,0.19-.32,0.29-.87,0.32-.74,0.1-1,0.16-.94,0.1-.61,0.23-.13h0.06Z" transform="translate(-0.63)"/><path class="cls-1" d="M177.38,20.33l0.06,0.26L177,21l0,0.19h-0.1V21.4l-0.06.06-0.06.48-0.13.07-0.32.39v0.13l-0.36.35-0.06.32-0.29.42-0.06.23-0.61.81-0.29.35-0.81.74-0.06.23h-0.13l-0.22.48-0.81.64-0.9.58-0.77.65-0.29.23-0.32.13-1.07,0-0.52,0-0.74.19-0.52-.13-0.19-.13-0.1-.23,0-.13h0.16l0.06-.06,0.52,0,0.1-.06,0.68,0.13,0.48-.16,0.19-.16,1-.29,0.94-.48,0.52-.52,0.26-.06,0.32-.39,0.77-.68,0.19-.16,0.06-.29,0.32-.35,0.06-.19,0.32-.23,0.07-.19,0.16-.13,0-.19,0.61-.81,0.16-.32,0.1-.06,0.19-.39,0.19-.16,0.52-.81,0.32-.32,0.19-.48,0.23-.29,0.36,0,0.1,0.07v0.06Zm-3.65-8.55,0.13,0.32-0.35,1-0.06.45h-0.06l-0.1.48-0.48.9,0,0.13-0.13.07-0.06.45-0.16.32-0.19.78-0.16.16-0.06.29-0.19.19-0.06.52-0.23.32,0,0.19h-0.06v0.16h-0.1l-0.32,1,0,0.13-0.16.16-0.29,1-0.39.9-0.1.48-0.1.06-0.39.77-0.42,1,0,0.42-0.06.06V25.2l-0.16.23-0.16,0-0.26-.13-0.13-.23,0-.58,0.06-.45h0.06l0.23-.68,0.1-.13,0.1-.9,0.45-.87,0.19-.16,0.13-.48,0.23-.48,0.13-.52,0.39-.94,0.1-.32,0.1-.06,0.16-.48,0.16-.16,0.32-1,0.19-.45,0.1-.52,0.16-.13V15.65l0.39-.58,0-.23,0.1-.16,0.1-.58,0.35-1,0.39-.81,0.29-.42,0.29-.1h0.1Zm2.07-3.71,0,0.13,0.06,0.23,0,0.16h-0.06l-0.16.19-0.19.39-0.19.23-0.23.1-0.06.1-1,.36h-0.48L173,9.81l-0.1-.23,0.13-.23,0.74-.13,0.84-.45,0.42-.36,0.23-.06L175.57,8l0.16,0.07h0.06Z" transform="translate(-0.63)"/><path class="cls-1" d="M173.78,28.08l-0.1.23-0.16.13-0.26.1-0.68-.06V27.95l0.23-.1,0.55-.06,0.36,0.13,0,0.1ZM184.36,14.2v0.16l-0.16.19-0.84.26-0.06.1-0.23.06-0.81.58-0.36.26-0.19.23-0.29.13,0,0.1-0.36.35,0,0.13-0.16.13V17l-0.45.58,0,0.71-0.36.48,0,0.16h-0.06l-0.06.48-0.39,1,0,0.26-0.16.13-0.13.45-0.48.71-0.13.07v0.13l-0.16.16-0.13.42,0,0.81-0.1,0v0.13l-0.32.68-0.26.42-0.39.94-0.29.84-0.19.39v0.13l-0.23.48,0,0.26-0.55.61-0.45.13-0.42-.1-0.16-.29,0.13-.23,0.68-.29,0.55-.87,0.1-.1,0-.23,0.13-.23,0.13-.71,0.39-.94,0.26-.9,0.23-.48,0.16-.16,0.07-.23,0.32-.35,0-.65,0.23-.45,0-.19,0.35-.84,0.52-.94,0.06-.48,0.29-.55,0.06-.19,0.36-.39,0.13-.06,0.1-.23L180.07,17V16.75l0.1-.26,0.68-.81,0.26-.29,0.19-.06,0.19-.19,0.19-.1,0.58-.45,0.81-.29,0.26-.1V14.14h0.16V14.07h0.13l0.1-.1h0.39l0.23,0.16Zm8.1-.06V14.3l-0.06.1-0.35.16-0.07.1-0.23.13h-0.13L191.1,15l0,0.1-0.45.19-0.45.32-0.68.74-0.36.39-0.26.19,0,0.23-0.42.64-0.32.9-0.35,1-0.23.45-0.23,1.06V21.3l-0.1.07-0.19.42-0.16.19-0.23.48-0.1.39-0.19.19-0.13.65-0.1.1-0.29.9-0.19.48V25.3h-0.1l-0.39,1-0.36,1-0.16.23-0.1.42-0.1.06-0.1.26-0.1.1h-0.16v0.06l-0.16.06-0.23-.06-0.26.1-0.1-.1-0.65.16-1,0L181,28.4l-0.16-.13,0-.26,0.1-.16,1,0.16,0.71-.1,0.52,0.1,0.45-.26,0.29-.32,0.42-1,0.32-1,0.45-.9,0.16-.26,0.16-.52,0.39-.64,0.06-.55L186,22.2l0.35-.42,0.13-.45,0-.52,0.26-.32,0-.23L187,20l0.16-.74,0.1-.06,0.1-.39,0.19-.19V18.33l0.19-.32,0.26-.77,0.06,0,0-.39,0.13-.19,0.13-.06V16.39l0.13-.06,0-.19,0.81-.68,0.19-.23L190,15l0.13-.19h0.13l0.07-.1,0.19-.06,0.84-.61,0.68-.19,0.26,0.06,0.13,0.13Zm3.45,5.26,0,0.26-0.13.26-0.13.52-0.23.48-0.16.16,0,0.26L195,22l-0.39,1-0.29,1-0.06.32-0.1.06-0.06.52-0.06.07,0,0.23-0.1.06-0.32,0L193.43,25l0.19-.9,0.06-.58,0.29-.81,0-.26,0.32-.81,0.19-.58,0.1-.13,0.16-.65,0.1,0V20.1h0.06l0.26-.61,0.23-.13,0.1-.45,0.1-.1,0.13-.68h0.1V18h0.06l0.06-.45H196l0.23-.71,0.29-.87,0.13-.55,0.39-.9,0.16-.52-0.1-.68h-0.06V13.07l-0.13-.32,0.13-.23h0.26l0.19,0.16,0.29,0.94-0.13.45,0,0.58,0.06,0.29-0.35.9-0.1.52-0.13.19-0.13.52-0.23.26-0.07.32-0.16.19-0.07.39-0.1.16-0.19.71-0.23.26Zm6.49,1,0,0.23-0.19.48-0.29.52-0.13.06v0.16h-0.06V22h-0.06l0,0.19-0.58.78-0.52.58-0.19.48-0.58.77-0.74.74-0.77.68-0.39.68-0.74.65-0.48.36-0.61.32-0.19.13-0.52.06-0.68.23v0.07l-0.71.26-0.13,0-0.19-.39,0.1-.19,0.39-.19h0.19l0.16-.16,0.39-.07,0.42-.26,1-.42,0.74-.71,0.19-.16,0.13-.23h0.13l0.39-.19,0.68-.77,0.16-.19,0-.13,0.16-.13,0.55-.81,0.65-.81,0.1-.1V22.91l0.29-.39,0.16-.13,0-.23,0.36-.39,0.06-.23,0.1-.1,0.13-.39,0.26-.29,0-.19,0.36-.32,0.29,0,0.16,0.1Z" transform="translate(-0.63)"/><path class="cls-1" d="M199.37,28.11l0,0.32-0.19.1-0.42,0-0.06.06-1-.19,0-.26,0.06-.19,0.52-.1,0.87,0,0.26,0.16Zm10.16-13.75,0,0.13-0.16.13-0.84.1-0.42.29-0.29.39-0.19,0-0.61.52-0.06.13h-0.16v0.06l-0.23.06-0.13.19-0.23.1-0.16.29h-0.06l-0.1.52-0.39,1L205,19l-0.13.48-0.42.71V20.3l-0.1.06v0.06h-0.06l0.1,0.42-0.26.71,0,0.16-0.1,0-0.13.45-0.13.1-0.26.9-0.06.1v0.19h-0.07v0.16h-0.1v0.16h-0.06v0.13h-0.06l0,0.19-0.13,0-0.06.23-0.19.16-0.1.23-0.06,0-0.19,1-0.29.42,0,0.48-0.35.65v0.16l-0.23.16-0.26.45-0.45.23-0.26,0-0.1-.06-0.1-.29,0-.1,0.45-.26,0.13-.26,0.36-.32,0.1-.45,0.32-.68,0.26-1,0.35-1,0.16-.42,0.19-.26,0-.23,0.16-.16,0.32-.9,0.32-1,0.1-.32,0.29-.16,0-.23,0.16-.23,0.06-.52,0.16-.45,0.32-.55,0.13-.16,0.13-.87,0.23-.39,0.13-.1,0-.19,0.1-.07,0.32-.58,0.19-.16,0.06-.23,0.13-.06,0.13-.29,0.23-.06,1.26-.87,0.52-.1,0.42-.29,0.55-.13,0.23,0,0.16,0.16v0.16Zm9.94,6.29-0.23.48-0.61.81-0.61.84-0.23.23,0,0.26-0.26.61-0.16.13,0,0.19-0.13.06,0,0.19-0.32.23-0.23.45-0.39.39-0.29.42-0.19.06-0.71.78-0.19.19-0.19.1h-0.36l-0.16.16-0.23.45-0.19.19-0.84.42-0.45.19-0.23.16-0.23,0-0.06.1-1,.1-0.52,0-0.19-.06L210,28.62l0.06-.29,0.23-.1,0.52,0,1-.26,0.29-.06,0.29-.23,0.23-.06,0.19-.19h0.1l0.19-.19,1-.23,0.26-.61,0.19-.16v-0.1l0.74-.71,0.16-.23,0.39-.23,0.29-.48,0.1-.06V24.3l0.58-.81,0.19-.23,0-.19h0.1l0.26-.45,0.16-.13,0.16-.48,0.39-.68,0.32-.35,0.29-.45,0.23-.1V20.36l0.29,0,0.19,0.23Zm-5.1-7.23,0.16,0,0.1,0.1,0.1,0.45v0.55l-0.19.94-0.35,1-0.39,1-0.16.58-0.16.19,0,0.19-0.23.48,0,0.23h-0.06l-0.1.45-0.48.87-0.26.42,0,0.23-0.16.13-0.07.68L212,22l-0.07.45h-0.06l-0.16.48-0.26.45-0.26,1-0.13.77-0.1.1-0.32.07-0.06-.07,0-.35-0.1-.16,0-.52,0.13-.48,0.1-.13,0-.52,0.1-.06,0.1-.32,0.19-.13V22.43l0.16-.23,0.1-.52,0.32-.77L212,20l0.16-.42h0.06V19.43h0.06V19.27h0.06V19.14h0.06V19h0.1V18.85h0.06l0.13-.74,0.1-.06,0.1-.45,0.42-.94,0.1-.16,0-.29,0.26-.52,0.06-.35,0.1-.1,0.1-.35,0.07-.07V13.94l0.1-.07V13.72l0.06-.07V13.52l0.16-.1h0.07Zm0.06-.52-0.06.13-0.26,0,0-.1,0.1-.06,0.19,0Z" transform="translate(-0.63)"/><path class="cls-1" d="M220.26,23.59l-0.13-.16,0-.26,0.16-.32,0.26,0.06,0.13,0.35-0.1.23-0.19.13-0.06,0h-0.1Zm0.81-1.68V22l-0.26.06-0.1-.06,0.16-.19H221ZM234,20.3v0.23l-0.48.9-0.19.42-0.65.48v0.16l-0.1,0-0.16.26-0.13.45-0.16.1-0.06.19-0.39.32-0.65.81-0.74.71-0.77.74-0.06.1h-0.13v0.06h-0.16v0.1l-0.23.1-0.26.26-0.19,0-0.06.13-0.45.26-0.39.35-0.23.1-0.16.19-0.19,0v0.07h-0.16V28l-1,.26-0.52.1-0.48.23-1,.06h-0.13l-0.26.13-1,.06-0.94-.06h-0.42l-0.23-.29,0.13-.19,1,0.06,1-.07h0.29l0.19-.1,0.23,0.1,0.87-.29,0.1-.13,0.32,0,0.16-.16h0.23l0.48-.26,0.74-.23,0.06-.1,0.26,0,0.19-.16,0.19,0,0.48-.32,0.81-.61,0.65-.55,0.16-.23,0.23-.06,0.26-.35,0.74-.74,0.68-.77,0.71-.74,0.1-.1,0.1-.48,0.1-.06V21.69l0.32-.26,0.06-.23,0.23-.13,0.1-.26,0.1-.1V20.59l0.42-.52h0.16l0.23,0.19Zm-7.91-6.13,0,0.13-0.16.13-0.48.19-0.1.1-0.42.16-0.77.74-0.32.32-0.1.19h-0.06l0,0.13-0.58.81-0.29.23v0.13l-0.35.39v0.13h-0.06l-0.26.87-0.13.26-0.19.13h-0.39l-0.06-.26,0-.26,0.45-.87,0.13-.48,0.36-.42,0.52-.9,0.48-.61,0.23-.13,0.06-.23,0.39-.36,0.23-.29,0.19,0,0.06-.13,1-.32,0.55-.13,0.13,0.29v0.1Zm4.1-.52h0.23L230.61,14l0.1,0.52-0.1,1.1-0.1.55-0.32.29,0,0.52-0.06.45-0.48.94-0.29.74-0.13.06-0.45.58-0.23.1-0.68.74-0.19.19h-0.13l-0.42.26-0.55.19-0.42.26-0.74.13-0.52.23-0.48.13h-1l-0.94.07h-0.71l-0.23-.1V21.65l0.16-.16,1-.06,1,0h0.35l0.07-.1,1-.16,1-.29,0.68-.29,0.36-.42,0.81-.61,0.55-.55,0.1-.23,0.13-.06,0.1-.32,0.16-.19,0.06-.36,0.55-.87,0.35-.39v-1l0-1,0.13-.81V13.65Z" transform="translate(-0.63)"/><path class="cls-1" d="M234.51,31.72l0,0.16-0.13.19-0.52.35-0.52,0-0.81.65-0.29.23-0.13.19-0.23.1-0.06.23-0.19.13,0,0.16-0.13.06-0.1.23-0.16.13-0.36,0-0.1-.1L230.8,34l0.19-.36V33.6l0.65-.84,0.45-.29,0.19-.19,0.48-.06,0.87-.58,0.48-.13,0.23,0,0.1,0.16Zm9.13-4.07,0,0.26-0.84.58-0.35.29-0.39.16-0.16.16-0.35.06-0.9.55-0.61.52,0,0.19-0.23.13-0.26.45-0.1.52-0.32.84-0.1,0v0.13h-0.1l-0.35,1-0.19.48-0.1,0v0.13l-0.16.19,0,0.16-0.1,0v0.13h-0.06l-0.06.29-0.19.19-0.19.39-0.48.45-0.39.52-0.48.48-0.19.07-0.06.1h-0.13l-0.06.16-0.52.13-0.68.35-0.19.16-1,.13-1.06-.06h-0.55L231.42,38l-0.16-.16V37.59l0.1-.1h0.52l0.74,0.1,0.23-.1h0.42l0.06-.06,0.42,0,0.39-.13,0.16-.16,0.45-.13,0.77-.58,0.71-.74,0.29-.45,0.61-.71V34.37l0.22-.16V34.08h0.06l0.26-.45,0.26-.65,0.35-.45V32.4l0.1-.16,0.06-.42h0.06V31.66l0.32-.74,0.13-.48H239l0-.19,0.29-.42,0-.13,0.42-.26,0.94-.45,0.13,0,0.13-.19,0.23-.06,0.13-.16h0.13l0.1-.16,0.61-.19,0.13-.16h0.13l0.1-.16h0.13l0.16-.19,0.23-.06,0.19-.16,0.23,0,0.1,0.16Zm-11.42.58,0.26,0,0.13,0.19v0.13l-0.1.06h-0.29l-0.06-.1,0-.26Zm4.39-.87v0.23l-0.29.26-0.13.23H236l-0.06.1-0.35.13v0.07h-0.16v0.06l-0.94.26-1,.19-0.19-.13V28.46l0.13-.16,0.39-.1,0.55,0,0.48-.19,0.87-.58,0.42-.26,0.06-.1,0.23,0.1,0.16,0.19Zm2.48-15.43v0.48l-0.32.94-0.35,1-0.42.94-0.45.84-0.06.52-0.29.74-0.26.45-0.1.48-0.32.74,0,0.13-0.19.13-0.19.45-0.13.52-0.07.06-0.23.87L235,22l0,0.81-0.29,1-0.06.48-0.06.1-0.13.64-0.23.16-0.32-.06-0.13-.19V24.37l0.1-.74,0.13-.13,0.06-.39,0.07-.06,0.16-.58,0.29-.52h0.13l0.16-.16,0-.55,0.32-.9,0.1-.16,0.13-.65,0.35-.58L236,18V17.91l0.23-.19V17.56l0.13-.07V17.33h0.1V17.2l0.19-.16V16.85L236.9,16l0.45-.94,0.29-.65,0.07-.39,0.16-.13,0.06-.23,0.16-.13V13.43l0.06,0,0.07-.58,0.16-.45,0.36-.52,0.29,0.1h0.06Zm8.13,0-0.07.52-0.23.48-0.1.1-0.19.58-0.13.1,0,0.32-0.16.23-0.06.52L246,15l-0.06.35-0.26.61-0.1.06v0.13l-0.23.16-0.29.42,0.06,0.52-0.1.32-0.36.55-0.06.26-0.13.19v0.13l-0.16.16,0,0.26-0.1.39h-0.06L244.1,20l-0.13.23-0.1.06-0.1.23-0.23.13v0.23h-0.06l0,0.29-0.16.48-0.23.48-0.19.19-0.39.68v0.65l-0.1.1-0.16.45,0,0.26-0.1.06-0.42.81-0.06.45-0.16.52-0.16.23-0.36.13-0.1-.1-0.06-.26,0.19-.58,0.16-.13,0.13-.39,0.13-.06V24.49l0.23-.55,0.16-.48,0.32-.29,0.13-.32,0.1-.1-0.06-.52,0.45-.87,0.16-.48,0.19-.16,0.29-1,0.19-.42,0.13-.55,0.42-.81,0.16-.19,0.39-1,0.23-.32-0.06-.23,0.13-.48,0.45-.9V14.72h0.1l0.06-.39,0.13-.06,0.1-.35,0.13-.06,0.19-.84,0.16-.55h0.1l0.07-.39,0.23-.29,0.29,0,0.19,0.1Zm3.19,8.55-0.06.52-0.39.65-0.23.39-0.68.77-0.48.74-0.23.35-0.81.77-0.1.19-0.65.68-0.16,0-0.1.16h-0.13l-0.77.61-0.32.26-0.1.23-0.36.32-0.26.1-0.26-.06,0-.26,0.13-.23,0.42-.29,0.36-.36,0.16,0,0.06-.16,0.23-.06,0.26-.36,0.77-.74,0.32-.39,0.23-.16,0-.19,0.1-.06,0.26-.42,0.06-.23,0.23-.16,0.1-.23,0.19-.13,0.1-.23,0.19-.13,0.1-.23,0.19-.16,0.1-.23,0.13-.06V21.59l0.16-.16,0.19-.45,0.26-.36,0.36-.35,0.36,0.19Z" transform="translate(-0.63)"/><path class="cls-1" d="M255.4,36l0-.45,0.23-.1,1.13-.1,0.32-.1,0.16-.13,0.23,0.13,0.16,0.23,0,0.23-0.16.23h-0.16V36l-0.39.13-1.13-.06-0.42,0Zm4.39-6.71-0.06.29-0.52.35L259,30.4l0,0.16-0.32.52-0.1.1,0,0.26-0.16.16-0.13.52-0.29.71v0.1h-0.06l-0.1,1v0.26l-0.1.26-0.1.1-0.29,0-0.16-.13v-1l0.06-.84,0.1-.13,0.1-.36,0.1-.1,0.06-.35,0.39-.81,0.45-.9,0.45-.58,0.19,0v-0.1h0.13V29.11l0.48,0,0.16,0.13Zm0.29-11.2,0.06,0.06-0.06.45-0.16.06,0,0.19-0.23.32-0.1.45-0.06.06V20l-0.1.06-0.13.23-0.1.55,0.1,0.55-0.1.45,0.1,0.52,0.19,0.48,0,0.26-0.1.26-0.29,0L259,23.2l-0.13-.48,0-.52-0.19-.94,0-.55,0.16-.52,0.06-.52,0.1-.16L259,19l0.58-.77,0.13-.16,0.32,0Zm5-2.26L265,16.1l-1,.1h-0.48l-0.94.16-0.42.23-0.84.61-0.48.23-0.36.06-0.06-.29,0-.19,0.26-.29,0.13,0,0.23-.29h0.13l0.42-.29,1-.32,1-.16,0.52-.1,0.81,0.1,0.23,0.19Zm6.07,1.9,0,0.26-0.45.58-0.39.26L270,19.3l-0.68.48-0.13.06-0.61.81-0.71.74-0.77.71-0.07.13h-0.16V22.3h-0.13L266,23l-0.16.16-0.06.16-0.42.29-0.42.55-0.19.06-0.68.77-0.77.71-0.1.1h-0.1l-0.55.52-0.36.06-0.13-.06L262,26.11l0.23-.48,0.16-.13,0-.19,0.23-.06,0.19-.32,0.19-.06,0.06-.13,0.48-.29,0.07-.1,0.19-.06,0.65-.81,0.71-.52,0.65-.77,0.77-.74,0.23-.16,0.23-.29,0.13,0,0.74-.77,0.74-.74,0.74-.68,0.9-.9,0.32-.19,0-.1H271l0.19,0.16ZM262.92,30.5l0.81,0.16,0.19,0.16,0,0.1-0.06.1-0.55.1L262.89,31V30.53ZM264.31,31l0-.13,0.26-.19,0.55,0,0.55,0.06,1-.1,1-.23,1-.19,0.94-.35,0.94-.55,0.13,0,0.06-.13,0.32-.19,0.07-.13,0.23-.1,0.42-.35,0.26-.1,0.32-.32V27.78l0.16-.06,0-.19,0.55-.55V26.85l0.23-.16V26.56l0.16-.13,0.42-.9,0.52-.87,0.07-.81,0.06-.07V23.56h0.1l0.13-1,0.06-.07,0.13-1,0.26-.58h0.23l0.06,0.16-0.06.13,0.13,1,0,0.36-0.19.52-0.19,1L275,25l-0.19.71-0.1,0v0.13h-0.1l-0.23.58-0.19.16-0.06.23-0.19.1-0.52.94-0.1.06v0.13l-0.19.13-0.06.13-0.42.26-0.42.48-0.19.06-0.71.61h-0.13l-0.06.16-0.23.06-0.07.16-0.19,0-0.1.1-1,.29-0.84.29-1,.29-0.52.16-1,0-1,0-0.52,0-0.23-.1-0.1-.16V31Zm3.29-17.17,0.06,0.1-0.1.48-0.23.45-0.06.29-0.13.16-0.13.42H267v0.13l-0.39.29-0.32.1-0.26-.1-0.1-.16,0.26-.26,0.13-.23,0.1-.06L266.5,15l0.42-.9,0.23-.32,0.42,0.06ZM276.28,4V4.16l-0.13.19-0.45.16-0.42.26-0.39.39-0.29.42-0.07.23-0.1.1-0.19.94-0.19,1,0,0.52,0.1,0.45,0,0.58-0.07.52L274,10.1l-0.26,0-0.13-.16-0.13-1V7.81l0.1-1,0-.52,0.16-.55,0.32-.48,0.1-.52,0.26-.35L275,4.1l0.68-.29,0.52,0,0.1,0.06Zm4.39,1.68,0.16,0.52V6.65l-0.26.74-0.06.06-0.07.48-0.1.1,0,0.26L280,8.65,280,8.87l-0.36.39,0,0.13-0.16.16V9.71l-0.71.45-0.07.52-0.19.39-0.81.71-0.68.58-0.19,0-0.36.39-0.26.48-0.29.35-0.39.32-0.32.39,0,0.16h-0.07l-0.1.77,0.19,0.81-0.16.26H274.8l-0.16-.16-0.1-.45,0.06-.26-0.19-1,0.1-.48,0.74-.77,0.71-.74,1.16-1.07,0.55-.84,0.29-.29,0.45-.13,0-.13,0.19-.19,0.13-.45,0.29-.39L279.54,8l0.26-.45,0.39-1.45,0.29-.45h0.19Zm-5.32,11.78,0.13,0.42,0.1,1.07L275.64,20l-0.13.23-0.1.06L275.12,20l-0.1-.52,0-1.06-0.1-.06,0-.52,0.1-.39,0.32,0h0.06Zm5.49-12.81,0,0.42h-0.36l-0.1-.1V4.58h0.45Z" transform="translate(-0.63)"/><path class="cls-1" d="M280.25,28.43l0,0.13-0.19.16-0.52.06L279,28.56l-0.1-.23,0.13-.19,0.55,0.06,0.61,0.19Zm4.39-14.68,0.16,0.06,0.07,0.1-0.23,1,0,0.26-0.26.42,0,0.23-0.16.23,0,0.19-0.1.06,0,0.39-0.36.84-0.13.42-0.23.39-0.36.87-0.16.52-0.39.84-0.16.19-0.06.23-0.16.16v0.13h-0.06l-0.19,1-0.19.58h-0.07v0.13h-0.06l-0.1.42-0.13.16L281,24l0,0.52-0.13.45-0.23.1-0.16,0-0.16-.13V24.33l0.29-.58,0.16-1,0.06-.35h0.06V22.24H281l0-.16h0.07V21.91h0.06V21.78h0.06V21.62h0.06V21.49l0.1-.16,0.06-.29,0.06-.06V20.75l0.13-.29,0.1-.06V20.23h0.07V20.11h0.1l0.1-.77,0.19-.39h0.07l0.16-.52,0.19-.29,0-.23,0.1-.1,0-.19h0.06l0.07-.35L283,17.1V16.88l0.36-.65V16.1l0.42-.9,0.29-.45,0.1-.55,0.29-.45h0.16Zm0.13,12.65-0.13.19-0.23.16-0.16.23L284,27l-0.71.68-0.45.36-0.36.13-0.06.16-0.19,0-0.23.16-0.94.1-0.61-.16V28.33L280.8,28l0.19-.07h0.29l0.48-.16,0.22-.13,0.07-.1h0.16V27.49h0.13l0.32-.35,0.61-.36,0.19-.26h0.1l0.26-.29H284l0.29-.29h0.16l0.19,0.13Zm0.45-13.52-0.13,0-0.26-.19V12.33L285,12l0.16-.19,0.32-.13,0.29,0.1L285.8,12l-0.13.52-0.16.19h-0.16l-0.06.13Zm18.91,7.45,0.06,0.26-0.19.48-0.52.87-0.68.77-0.19.16V23l-0.58.52-0.1.23h-0.13l-0.23.29h-0.16l-0.06.16h-0.13l-0.16.19h-0.13l-0.16.19-0.23,0-0.07.16-0.42.1-0.68.32-1,.23-0.48.1-1.06-.06-1-.1-0.45-.16h-0.29l-0.19.1-0.61.81-0.42.32-0.39.19-0.84.65-0.23.29h-0.16v0.06h-0.13l-0.16.16-0.29.07-0.42.19-0.16.16-0.23.06-0.13.16-0.94.23-1,.13H288l-0.23-.1-0.06-.13,0.13-.32h1l1-.42,0.52-.13h0.23l0.94-.52,0.71-.45,0.39-.32,0.19,0,0.07-.13,0.23-.1,0.32-.42,0.48-.42L294,25l0.36-.32,0.39-.13,0.58,0,0.22,0.06,0.07,0.1,1,0.1h1l0.74-.13,0-.06,0.26,0,0.71-.23,0.58-.42,0.81-.42,0.77-.68,0.71-.74,0.71-.77,0.1-.1,0.45-.94,0.32-.26,0.29,0.13Zm-11.91-5.07-0.07,1-0.36.9-0.29.42-0.23.48-0.1.1-0.06.52-0.36.94-0.32.9-0.1.1-0.1.32-0.16.16-0.13.48-0.19.42-0.06.48-0.23.26,0,0.16-0.13.07-0.26.68,0,0.55-0.1.48-0.19.19-0.26-.06-0.13-.16-0.06-.52,0.22-1.07,0.06-.1V22.72L289,22l0.42-1,0.13-.32,0.16-.16V20.4l0.13-.06,0.36-1,0.36-1,0.36-1,0.42-1,0.13-.42,0.16-.06,0-.26,0.29-.23,0.06-.13,0.19-.07h0.06Zm1.45-3.19-0.16,1-0.13.16-0.13.32-0.26.39,0,0.23-0.32.52-0.42.23-0.07-.23,0.07-.13-0.07-.45,0.07-.06,0-.26,0.32-.71,0.1-.06,0.06-.52,0.52-.65h0.16L293.61,12Zm7.16-.58,0.1,0.26-0.19.94-0.23,1-0.42,1-0.1.36,0,0.58-0.16.29-0.16.48-0.1.1-0.19,1-0.1.1-0.06.19-0.32.36-0.26,1-0.16.36v0.13l-0.16.16v0.13l-0.13.23-0.42.29-0.19.87-0.42.87-0.36.39-0.26.06-0.19-.06-0.1-.29,0.1-.23,0.32-.35,0.16-.39,0.1-.45,0.58-.48,0.1-.48,0.26-.77,0.19-.19V18.49l0.16-.19,0.07-.19,0.19-.19,0.19-.74V16.68l0.1-.1,0.13-.52,0.32-.74,0.16-.19,0.16-.45,0.1-.06V14.49l0.07,0V13.68l0.36-1V12.07l0.32-.58,0.13-.1h0.13l0.16,0.1h0.06Z" transform="translate(-0.63)"/><path class="cls-1" d="M305.12,23.59L305,23.43l0-.26,0.16-.32,0.26,0.06,0.13,0.35-0.1.23-0.19.13-0.07,0h-0.1Zm0.81-1.68V22l-0.26.06-0.1-.06,0.16-.19h0.13Zm12.94-1.61v0.23l-0.48.9-0.19.42-0.64.48v0.16l-0.1,0-0.16.26-0.13.45-0.16.1-0.06.19-0.39.32-0.64.81-0.74.71-0.77.74-0.07.1h-0.13v0.06H314v0.1l-0.23.1-0.26.26-0.19,0-0.07.13-0.45.26-0.39.35-0.23.1-0.16.19-0.19,0v0.06H311.7V28l-1,.26-0.52.1-0.48.23-1,.06H308.5l-0.26.13-1,.06-0.94-.06h-0.42l-0.23-.29,0.13-.19,1,0.06,1-.07h0.29l0.19-.1,0.23,0.1,0.87-.29,0.1-.13,0.32,0,0.16-.16h0.23l0.48-.26,0.74-.23,0.07-.1,0.26,0,0.19-.16,0.19,0,0.48-.32,0.81-.61,0.64-.55,0.16-.23,0.23-.06,0.26-.35,0.74-.74,0.68-.77,0.71-.74,0.1-.1,0.1-.48,0.1-.06V21.69l0.32-.26,0.06-.23,0.23-.13,0.1-.26,0.1-.1V20.59l0.42-.52h0.16l0.23,0.19ZM311,14.17l0,0.13-0.16.13-0.48.19-0.1.1-0.42.16-0.77.74-0.32.32-0.1.19H308.5l0,0.13-0.58.81-0.29.23v0.13l-0.36.39v0.13h-0.06l-0.26.87-0.13.26-0.19.13h-0.39l-0.06-.26,0-.26,0.45-.87,0.13-.48,0.35-.42,0.52-.9,0.48-.61,0.22-.13,0.07-.23,0.39-.35,0.23-.29,0.19,0,0.06-.13,1-.32,0.55-.13L311,14.07v0.1Zm4.1-.52h0.23L315.47,14l0.1,0.52-0.1,1.1-0.1.55-0.32.29,0,0.52-0.07.45-0.48.94-0.29.74-0.13.06-0.45.58-0.23.1-0.68.74-0.19.19h-0.13l-0.42.26-0.55.19-0.42.26-0.74.13-0.52.23-0.48.13h-1l-0.94.07H306.7l-0.23-.1V21.65l0.16-.16,1-.06,1,0H309l0.06-.1,1-.16,1-.29,0.68-.29,0.36-.42,0.81-.61,0.55-.55,0.1-.23,0.13-.06,0.1-.32,0.16-.19,0.06-.35,0.55-.87,0.36-.39v-1l0-1,0.13-.81V13.65Z" transform="translate(-0.63)"/><path class="cls-1" d="M319.7,23.59l-0.13-.16,0-.26,0.16-.32L320,22.91l0.13,0.35-0.1.23-0.19.13-0.07,0h-0.1Zm0.81-1.68V22l-0.26.06-0.1-.06,0.16-.19h0.13Zm12.94-1.61v0.23l-0.48.9-0.19.42-0.64.48v0.16l-0.1,0-0.16.26-0.13.45-0.16.1-0.06.19-0.39.32-0.64.81-0.74.71-0.77.74-0.06.1h-0.13v0.06H328.6v0.1l-0.23.1-0.26.26-0.19,0-0.06.13-0.45.26-0.39.35-0.23.1-0.16.19-0.19,0v0.07h-0.16V28l-1,.26-0.52.1-0.48.23-1,.06h-0.13l-0.26.13-1,.07-0.94-.06h-0.42l-0.23-.29,0.13-.19,1,0.07,1-.07h0.29l0.19-.1,0.23,0.1L324,28l0.1-.13,0.32,0,0.16-.16h0.23l0.48-.26,0.74-.23,0.06-.1,0.26,0,0.19-.16,0.19,0,0.48-.32,0.81-.61,0.65-.55,0.16-.23,0.23-.06,0.26-.35,0.74-.74,0.68-.77,0.71-.74,0.1-.1,0.1-.48,0.1-.06V21.69l0.32-.26,0.06-.23,0.23-.13,0.1-.26,0.1-.1V20.59l0.42-.52h0.16l0.23,0.19Zm-7.91-6.13,0,0.13-0.16.13-0.48.19-0.1.1-0.42.16-0.78.74-0.32.32-0.1.19h-0.07l0,0.13-0.58.81-0.29.23v0.13l-0.36.39v0.13h-0.06l-0.26.87-0.13.26-0.19.13h-0.39l-0.06-.26,0-.26,0.45-.87,0.13-.48,0.35-.42,0.52-.9,0.48-.61,0.23-.13L323,15l0.39-.36,0.23-.29,0.19,0,0.07-.13,1-.32,0.55-.13,0.13,0.29v0.1Zm4.1-.52h0.22L330.06,14l0.1,0.52-0.1,1.1-0.1.55-0.32.29,0,0.52-0.07.45-0.48.94-0.29.74-0.13.06-0.45.58-0.23.1-0.68.74-0.19.19H327l-0.42.26-0.55.19-0.42.26-0.74.13-0.52.23-0.48.13h-1l-0.94.07h-0.71l-0.23-.1V21.65l0.16-.16,1-.06,1,0h0.36l0.06-.1,1-.16,1-.29,0.68-.29,0.36-.42,0.81-.61L328,19l0.1-.23,0.13-.06,0.1-.32,0.16-.19,0.06-.35,0.55-.87,0.36-.39v-1l0-1,0.13-.81V13.65Z" transform="translate(-0.63)"/><path class="cls-1" d="M326.66,34.46l0,0.29-0.19.13L326,34.76V34.59l0.13-.19,0.23-.06,0.29,0.1Zm1.1,0h0.16v0.29h-0.16V34.46Zm6.81-12.52,0.1,0.26,0,0.26-0.39.9-0.1.32-0.23.29,0,0.19-0.26.45,0,0.26-0.1.1-0.13.42,0,0.45-0.42.81L332.7,27l-0.13.48-0.39.87-0.13.48-0.39,1-0.23.39-0.16.39-0.16.13v0.16h-0.06l-0.29.87-0.07.42-0.16.39h-0.06v0.13h-0.07l0,0.19-0.23.42-0.26,1.07-0.58.52-0.81-.13-0.06-.23,0.23-.32,0.19,0,0.58-.68,0.06-.36,0.32-1,0.06-.26,0.1-.1,0-.26,0.16-.13V31.24h0.06l0.26-.45,0-.29,0.16-.13,0.26-.93,0.45-1,0.13-.45,0.16-.19V27.66h0.1l0.06-.48,0.19-.48,0.16-.19,0-.19,0.26-.61,0.1-.06,0-.23,0.48-.81,0.1-.52,0.36-.94,0.29-.58,0-.23,0.52-.45,0.1,0.06h0.06Zm5.55-7.81v0.23l-0.13.16-0.61.13-0.87.58-0.42.26-0.16,0-0.48.61-0.1.26-0.16.16-0.06.23-0.42.61-0.06.26-0.39.58v0.16l-0.06,0-0.29,1-0.48.87,0,0.16-0.16.13-0.07.39L335,21.2l-0.23.16h-0.13l-0.16-.23,0-.32,0.19-.45h0.07V20.2h0.1l0-.39,0.23-.58,0.26-.42,0.32-1,0.29-.42,0.16-.52,0.16-.23,0.16-.45,0.23-.16,0-.16,0.39-.29,0.36-.16,0.13-.19,0.42-.35,0.32-.42,0.23-.06,0.07-.1,0.52-.23,0.52-.1,0.16-.1,0.29,0.1Zm9.42,6.36-0.16.52-0.29.42-0.29.23-0.39.9-0.26.39-0.23.19v0.13l-0.13.06v0.16l-0.16.06,0,0.19-0.39.35-0.26.36-0.42.35-0.29.42-0.84.65-0.68.61-0.23.06-0.52.58-0.32.06-0.16,0-0.1.06V27.3l-0.48.1-0.39.32h-0.16l-0.45.45H341.8v0.07h-0.16V28.3h-0.13l-0.45.19-0.52.13-1,.06-0.84.16,0,0.06h-0.29l-0.19-.16,0-.16,0.13-.23,0.23-.13,0.48-.1,1,0,1-.35,0.32-.1V27.59l0.19,0,0.1-.1,0.23,0L342,27.3h0.13l0.16-.1,0.74-.16,0.71-.61,0.13-.19,0.32-.1V26.07l0.39-.26,0.74-.74,0.77-.74,0.29-.42,0.36-.36,0.58-.84,0.64-.81,0.36-.39,0.36-.71,0.39-.55Zm-4.81-3.07,0.1,0.74-0.39,1-0.1.48-0.06.06v0.23l-0.16.65-0.16.16-0.32,1v0.07l-0.26.26,0,0.26h-0.06l-0.16.19-0.16.45-0.1.1-0.07.23-0.19.26-0.1.32-0.35.39-0.26.45-0.16.58-0.36.35-0.23.1-0.16.19-0.26.1-0.22-.1,0-.13,0.06-.29,0.32-.42,0.19-.16V24.75l0.13-.06,0.07-.23,0.32-.23,0.16-.52,0.13-.23V23.33h0.06l0.19-.42,0.13-.06V22.69l0.13-.06V22.46h0.07V22.33l0.9-1.87,0.36-.55,0.06-.87,0.23-.42,0.29-1,0.06-.16h0.39Zm0.36-2.49h-0.36l-0.16-.45V14.26l-0.16-.48,0-.48,0.13-.19h0.23L345,13.52,345.09,14l0.06,0.06-0.07.23,0,0.58Zm-0.06.81L345.15,16l0,0.52L345,17l-0.19.16-0.13,0L344.41,17V16.85l0.1-.06V16.23l0.23-.48H345Z" transform="translate(-0.63)"/><path class="cls-2" d="M136.3,18.46l-0.45.61-0.23,1.06-0.16,1-0.1.55,0.06,0.55,0,1,0,0.74h0.06l0,0.52,0.13,0.45,0.71,0.77L136.75,26l0.42,0.19,0.58,0.13,1.1,0,1-.16,0.94-.32,0.32-.06V25.78h0.16v-0.1l0.52-.13,0.06-.16,0.52-.13,0.06-.1,0.36-.16,0.06-.1,0.16,0V24.82l0.19,0,0-.13,0.23-.06,0.77-.61,0.23-.1,0.61-.58h0.1l0.74-.74,0.68-.77,0.65-.74,0.64-.77,0.58-.84,0.55-.81,0.13-.13h0.52l0.23,0.06,0.45,0.36V19l0.16,0.19,0,0.45-0.19.39-0.1.06-0.19.52-0.36.61-0.55.71L149,22V22.2l-0.16.13-0.06.23-0.68.77-0.74.74-0.68.81-0.68.71-0.81.65-0.77.65-0.29.26-0.19.06-0.58.45-0.23.06-0.19.16-0.23,0-0.94.42-0.84.39-1,.32-0.64.1-0.1-.1-1,.16-0.1-.06-1,.06-0.48.06-0.55-.06-1-.26-0.81-.39-0.42-.16-0.16-.23-0.39-.32-0.32-.39L132.69,27l-0.19-.13,0-.19-0.16-.23L132,25.53l-0.19-.45-0.13-.52-0.07,0-0.06-1V21.46l0.16-1,0.16-1L132,19l0.1-.06V18.75h0.06V18.33l-0.26-.42L131,17.39l-1-.45-0.45-.19L129,16.23l-0.19-.06-0.71-.74-0.68-.77-0.32-.42-0.48-.87-0.19-.29-0.23-.94-0.13-.55-0.13-1-0.1-.52,0.1-1,0-.52,0.1-.36,0.1-.13,0-.52,0.1-.1,0.26-.81,0.1-.06,0.16-.45,0.32-.42,0.32-.81,0.23-.13V4.65l0.13-.06,0-.19,0.71-.71L129.33,3l0.23-.13,0.29-.06,0.39,0.1,0.39,0.36,0.55,0.81,0.32,0.39,0.19,0.35V4.94h0.06l0,0.26-0.1,0-0.06.26-1.07,1.07-0.55.87-0.42.87-0.19.45-0.06.45H129.2v1.07l0.06,0.68,0.1,0.06,0.1,0.52,0.39,0.9,0.29,0.45,0.74,0.71,0.58,0.48,0.1,0.16h0.13l0.42,0.32,0.26,0.1,0.48,0,0.23-.1,0.32-.39,0.36-1,0.16-.45,0.19-.19,0.16-.55,0.23-.45,0-.19,0.1-.06,0.23-.52V10.55l0.52-.9,0.35-.45L135.78,9l0.16-.16,0.23-.68L136.33,8l0.1-.23,0.19-.19,0.1-.26,0.58-.84L137.65,6l0.19-.35,0.65-.81,0.68-.77,0.65-.65,0.1-.23,0.29-.13,0.26-.32,0.1,0,0.26-.29L141,2.39l0.06-.16,0.23-.06,0.29-.29h0.16l0.13-.23h0.16l0-.1,0.19,0,0.1-.19,0.42-.06,0.13-.13h0.13L143.3,1l0.23,0,0.16-.16,1-.19,0.94-.13,0.52-.06,1.07,0.1,1,0.36L149,1.39l0.29,0.39,0.58,0.58,0,0.16,0.19,0.16,0,0.23,0.19,0.19L150.66,4l0.16,0.36V4.87l0.1,0.52-0.1,1V7.26l-0.16.52-0.06.52-0.32,1-0.39,1-0.16.52-0.52.81-0.16.16L149,12l-0.19.13-0.1.23-0.35.35,0,0.13-0.29.26-0.1.26L147.4,14,147,14.3l-0.19.23-0.45.26-0.77.68-0.84.52-0.13.06-0.06.16-0.19,0-0.1.19h-0.16l-0.06.13-0.32.1-0.19.16-0.26.06-0.87.45-1,.39-1,.26-0.55.13-0.87.1-1,.13-1.07.13H136.3Zm-3.23-1.32,0-.55-0.16-.32-0.13.68,0.1,0.16H133Zm-0.23.9H133V17.88h-0.16V18Zm0.29,0.77h0.23V18.62h-0.23v0.19Zm0.32,1-0.23.13V20l0.19,0,0.06-.1Zm0.36-3.94-0.06.23,0.19,0.07-0.06-.52-0.23-.13,0.13,0.29Zm-0.06,9.87,0.26,0,0.1-.07V25.62l-0.36,0,0,0.06Zm0.13-1.26,0.06-.29-0.13,0-0.07.1,0.06,0.16h0.07ZM134.1,19l-0.32.32,0,0.19,0.13,0.16,0.16,0,0.19-.26,0.39,0.06V19.33l-0.13-.23L134.4,19l0,0.06L134.17,19H134.1Zm-0.29,5.84V25l0.1,0.1h0.19V24.82l-0.26,0Zm2-8.68-0.52.07-0.13.19-0.52,0,0,0.26-0.13.16L134.1,17l-0.23.16,0,0.26L134,17.59l0.23,0,0.1-.1,0.26,0,0.1-.23,0.13-.13L135,17.36l0.61-.07,0-.23-0.1,0-0.19.1-0.06-.06,0.06-.1,0-.29,0.19-.19,0.19,0.13h0.1l0.39-.35,0.06-.13-0.06-.06-0.32.1ZM135.11,15h-0.23l-0.19.13-0.06.68h-0.16l-0.36.29H134l0,0.13,0.26,0.23-0.13.19,0.13,0,0.1-.1,0.1-.32,0.1-.1h0.16L135,16V15.46l0.23-.13L135.4,15l-0.06-.16-0.13,0Zm-0.71.07V14.88l-0.23-.06V15l0.16,0.13h0.06Zm-0.23,2.77L134.4,18V18.1h-0.13l-0.1.23,0.68,0.19,0.13-.19V18.17L134.52,18l-0.06-.1,0.1-.06-0.16-.16-0.23.16v0.06Zm0.06,5.26,0.16,0,0.13-.26-0.13-.06-0.1,0-0.06.26v0.06Zm0.39-.87V22h-0.16l0,0.19,0.13,0.1h0.07ZM135,14.46l0-.26-0.1,0-0.06.22,0.1,0.07H135Zm0,3.42,0.1-.29-0.16,0-0.06.1L135,17.88H135Zm0.22-4.32L135,13.43v0.13l0.1,0.1,0.1,0Zm0,0.16L135.2,14l0.42,0,0.1,0.13-0.1.26,0.23,0.52-0.16.22-0.13.07-0.06.52,0.06,0.1,0.26,0,0.13-.52,0.13-.13,0.26,0.06,0.1-.13-0.19-.16-0.13-.48,0-.45-0.39-.23-0.42-.06h-0.06ZM136,17.07l-0.16.16,0,0.32-0.19.13v0.13l0.1,0.06H136l0.06-.26,0.16-.19,0.1,0.06,0.23-.13,0-.13-0.06-.06-0.36,0,0-.07,0.1-.29L136,16.72h-0.16L136,17Zm0.23-3.94,0,0.16,0.32,0.06-0.1-.23-0.1-.06-0.13,0Zm0.29-.81,0,0.13,0.1,0.29,0.23-.1,0.23-.23,0.06-.26-0.23-.06-0.1.19-0.19,0h-0.07Zm0-1.32,0.19,0.1,0.23,0-0.06-.48h-0.16l-0.16.13,0,0.19V11Zm0.19,2.55h0.23V13.36h-0.23v0.19Zm0.61-4V9.33l-0.23-.06,0,0.26,0.13,0h0.06Zm-0.23,7.87,0.26,0,0-.1-0.16-.16h-0.13v0.29Zm0.06-6.65,0.23,0.06,0.23-.19-0.13-.06-0.26.1,0,0.06ZM138.91,15l0.58-.13,0.87-.36,1-.35,0.58-.29,0.87-.55,0.16-.19,0.29-.1,0.13-.23,0.39-.29,0.71-.71,0.23-.16,0.26-.42,0.29-.23,0-.26,0.48-.55,0-.26L146,9.78,146,9.55l0.29-.42,0.32-.87,0.26-.94L147,6.13l-0.06-.42-0.16-.48-0.23-.42L146,4.49,146,4.39l-0.52-.1-0.55,0-1,.39-0.64.39-0.36.42-0.23.1L142.4,6,142,6.29l-0.26.45-0.68.81L141,7.78l-0.19.16-0.52.87-0.52.81-0.48.71-0.13.07,0,0.19-0.16.19-0.36,1-0.42.87v0.06h-0.1l-0.39.94-0.36,1,0.1,0.42,0.48,0.13,0.55,0,0.36-.1h0.06Zm-1.1-4.16-0.19.13v0.06h0.1l0.13-.13ZM139.07,16l0.29,0.1,0-.16-0.1-.06-0.16.06V16Zm0.23-8.75,0.1,0.06h0.29l0.13-.16-0.1-.06h-0.29l-0.13.1V7.29Zm1.23-1.48V5.74l0.23,0V5.62l-0.13,0-0.13.06,0,0.13Zm1.55-1.16,0.23-.13-0.1-.1-0.1.16ZM143,3.91h0.26l0.1-.06,0-.26-0.16,0L143,3.84V3.91Zm2.55-1.45,0-.13,0.16-.16,0.1-.29-0.29-.06-0.16.39,0,0.19Zm1.1,0.68,0.29,0.07V2.84l-0.23.1,0,0.13Zm0.29,0.65L147,3.55l-0.19-.06,0.06,0.26Zm0.29,8.33,0.16,0,0.06-.1h-0.19l0,0.06V12.1Zm0.39-7.52,0-.13L147.75,4h-0.06V3.58l-0.13,0-0.23.77,0,0.13,0.16,0.13h0.1Zm0-2h0.13V2.45h-0.13V2.61Zm0.23,4.68H148L148,7.16l-0.13-.1-0.06.16V7.29Zm0.42-3.07,0.19,0.06,0.1-.16-0.1-.06-0.16.07ZM148.43,3l0.1-.06,0-.13h-0.13l-0.1.13,0,0Zm0.13,5.78,0.29,0L149,8.65l0-.13-0.29.07-0.16.16V8.81Zm0.39-4.74V4.23L149,4.32l0.26,0.1,0.13,0,0-.1L149.17,4,149,4Z" transform="translate(-0.63)"/><path class="cls-2" d="M156.07,11.46l0.32,0.06,0.55-.35L157,11h0.13l0.36-.19,0.16-.16,0.94-.23,1-.26h0.48l1,0.19,0.45,0.16L162,10.88l0.1,0.32,0.19,0.1,0,0.23,0.23,0.32,0.1,0,0,0.26,0.13,0.32-0.1.45,0,1-0.29,1-0.19.48-0.06.48-0.42,1-0.39.94-0.42,1-0.35,1-0.16.48-0.16.13,0,0.23-0.39.94-0.39,1-0.26.84-0.13.48v0.65l0.19,0.48,0.19,0.26,0.84,0,0-.06,0.61-.19v-0.1H161l0.39-.32,0.13-.19h0.13l0.68-.71,0.68-.81,0.65-.84,0.61-.81,0.1-.1,0-.19,0.13-.06,0.48-.61,0-.16h0.07V19.85h0.06l0.16-.29h0.06l0.23-.48,0.29-.42,0.55-.06L167,18.75,167.33,19l0.16,0.52-0.16.58-0.19.16,0,0.23-0.29.36-0.26.45-0.26.29v0.13l-0.19.16-0.26.45-0.1.06-0.35.52,0,0.19-0.29.39-0.16.13,0,0.23-0.71.74-0.68.77-0.81.71-0.58.45-0.06.13-0.58.32h-0.13l-0.13.16-0.87.29-1,.35h-0.45l-0.06.07h-0.48l-1-.23-0.19-.16-0.39,0-0.06-.16h-0.13l-0.06-.1-0.16,0-0.36-.39-0.13-.23-0.1-.06V26.37h-0.06L155.52,26l-0.13-1.13v-1l0.23-1,0-.52,0.29-.94,0.39-.9,0.1-.39,0.1-.06,0.1-.45,0.39-.94,0.42-.9,0.35-.94,0.13-.35,0.16-.23,0.29-1,0.13-.45,0.06-.52-0.16-.45L158,13.52l-0.45-.06-0.29,0-0.68.29-0.45.29-0.45.19-0.45.42-0.19,0-0.74.71,0,0.19-0.36.36,0,0.19-0.42,1-0.29.81-0.1.1-0.26.68h-0.06l-0.29.9-0.32.81L151.9,21l-0.16.19V21.4h-0.06l-0.06.36-0.16.16-0.32.9-0.39,1-0.39,1-0.42.94-0.32,1-0.29.45-0.16.13-1,.13-1,.06h-0.55l-0.35-.07-0.39-.32-0.16-.52,0.45-1,0.39-1.1,0.1-.23,0.16-.16,0.16-.45,0.1-.1,0.16-.74,0.48-.94,0.13-.58,0.26-.74,0.19-.29,0-.16,0.1-.1,0.26-.77h0.06l0.29-1H149l0.32-.71,0.1-.1,0.32-1,0.77-1.94,0.42-.94,0.13-.45h0.06V13h0.1l0.06-.48,0.23-.45V11.88h0.06V11.75h0.06V11.59h0.06V11.46l0.16-.16,0.29-.71,0.06-.42,0.42-.9,0.16-.45,0.1-.06,0.29-.81V7.81l0.23-.42,0.32-1,0.36-.94,0.58-.84L155,4.29l0.45-.16,1,0.06,1.1,0L158,4.29l0.19,0.16,0.16,0.26,0,0.23-0.13.48-0.45.94-0.13.29-0.19.19V7h-0.06V7.13h-0.06l-0.26,1L156.74,9l-0.45,1L156,11l0,0.13,0.1,0.29Zm-4.39,4.1,0.07,0.29,0.26-.06,0.13-.16V15.46l-0.39.07Zm0.52,0.58-0.13-.07-0.06.1,0.1,0.06,0.06,0Zm0.29,0.06h0.36V16l-0.07-.1-0.19,0-0.1.16V16.2Zm0.07-3.36,0,0.13,0.16,0.16L153,13.62l0.16,0.16,0.06-.06,0.29-.07V13.59l-0.26-.13-0.13-.39L153,12.91V12.78l-0.16,0-0.26.06Zm0.61,1.45,0.32,0.1,0.23-.1,0-.13-0.1-.1-0.23,0-0.23.19Zm0.13-2.77,0.16,0.06,0.06-.13-0.16-.06Zm0.36-1.1,0.16,0.07,0.06-.13-0.13-.06-0.06.1Zm0.52,1.1-0.19.16h-0.16L153.9,12,154,12.1h0.16l0.06-.06-0.13-.36,0.26-.06,0.06-.16-0.1-.45,0.06-.19-0.16-.1-0.06.19v0.61Zm-0.23,1.32,0.16,0,0.06-.23L154,12.33l-0.16-.06,0.06,0.52v0.07Zm0.1,1h0.19l0.16-.23-0.1-.06-0.13,0-0.13.19v0.07Zm0,0.48,0.23,0.23,0.1,0,0.1-.13,0-.26L154.23,14l-0.19.26v0.1Zm0.19-.94h0.19l0.1-.16,0-.29-0.13,0-0.16.19,0,0.16v0.06Zm0.39-2,0.1,0.23,0.19,0.07,0.13-.19v-0.1l-0.1-.06-0.26,0Zm0.29-1.1H155l0.1-.23H155l-0.07.16V10.3Zm0.23-2.94,0.13,0.06,0.07-.13-0.13-.07Zm2.19,15.78V23.2h0.13l0,0.13,0.13,0,0-.23-0.06-.1-0.26-.13H157.1l0,0.1,0.23,0.13h0Zm0.81-4.39v0.52l0.19,0,0.16,0.1,0.16,0.58,0.26,0V19.81l-0.19-.19V19.49l0.16-.13,0-.23-0.1-.1h-0.39l0-.29-0.13-.19-0.23-.1,0,0.1,0.1,0.13Zm0.06,2.78V21.46l0.36-.19,0.06-.1-0.1-.06h-0.39l-0.1.26,0.1,0.16h0.06Zm0,1.1,0.23-.1,0.06-.1V22.2h-0.13l-0.19.13v0.23Zm0-2.49v0.39l0.06,0.1,0.23,0,0-.16,0.13-.19,0-.23-0.23,0Zm0.52-7.07h0.13l0.06-.23h-0.13l-0.06.16v0.07Zm0.07,3.42h0.13l0.16-.19,0-.26L158.91,16l-0.13.45v0.06Zm0.06-4.16v0.13l0.29,0.1,0-.26-0.19,0v0Zm0.06,6.58L159,19h0.29V18.81L159,18.56l-0.1.26v0.1Zm0.16-5.71,0.35,0.39,0.23,0.13,0,0.16L159.87,14v0.16L160,14.23v0.13l0.23,0.16,0.23-.29V14.07l0.23-.1,0.13-.16V13.65h-0.52L160,13.17l-0.45-.1h-0.29l0-.1L159,12.91,159,13l0.06,0.16V13.2ZM159.13,15l0.13,0,0.1-.13h-0.13l-0.1.1V15Zm0.06-1h0.23l0-.1-0.19,0V14Zm0,2.55,0.23,0.1,0.45-.1V16.43l-0.16-.16-0.13.19-0.26,0-0.1.06ZM159.94,17l0,0.39-0.1.07h-0.42l-0.1.06v0.06l0.23,0.16,0.36-.1,0.19,0.1,0.16,0,0.19-.16,0.1-.19-0.07-.19,0.06-.06h0.19l0-.1-0.52-.29L160,17Zm-0.52,2v0.13l0.13,0.19,0.26,0,0.13-.78h-0.29l0.06,0.35-0.19.1Zm0.16-5.68,0.19,0.16v0.13l-0.07.06-0.1-.1,0-.19V13.3ZM159.71,16l0.1-.16-0.07-.19h-0.16v0.29L159.65,16h0.06Zm0-3.71,0.35-.1,0.16-.45-0.13,0-0.36.29,0,0.19v0.1Zm1.19,2.32h-0.16l-0.1.16-0.36.13-0.1-.06-0.39.16v0.42l0.06,0.06,0.23-.06,0.06-.13,0.13,0,0.19,0.16,0.1-.06L160.52,15,160.75,15l0.1-.06L160.91,15l0,0.13-0.1.06,0,0.16h0.35l0-.29,0.36-.42-0.29-.16-0.26,0Zm-0.32,1.78,0.06-.1,0.13,0,0.06-.1-0.06-.26-0.16,0,0,0.06,0.1,0.1-0.19.26,0,0.06Zm0.16-3.87,0.06-.13-0.06-.16h-0.06l-0.06.1,0.06,0.16Zm0.52,0.94-0.13,0,0,0.13,0.1,0.23,0.19,0.13h0.23V13.72l-0.19-.16,0-.13,0.23-.06,0.1,0.13,0.16-.1,0-.1-0.23-.1-0.39-.06,0-.13-0.07,0-0.06.16,0.13,0.23v0.06Z" transform="translate(-0.63)"/><path class="cls-2" d="M172.8,11.14l-0.1.55-0.1.23-0.1,0-0.36.94-0.29.9-0.16.16,0,0.32-0.23.39-0.1.42h-0.06l-0.19.52-0.1.1v0.13l-0.39.81-0.07.36h-0.06l-0.23.74-0.36.52v0.13h-0.1v0.16h-0.06L169.6,19l-0.23.94-0.39.94-0.26.71-0.16.16v0.23l-0.19.45,0,0.23h-0.06l-0.26.9-0.13.55v0.52L168.22,25l0.42,0.23,0.87-.13,0.84-.55,0.39-.45L171,24l0.65-.81,0.58-.77,0.65-.84,0.19-.19,0.1-.23,0.13-.06,0.07-.23,0.16-.13,0.06-.23,0.52-.65,0.16-.45,0.29-.45,0.52-.42,0.55,0.06,0.29,0.19,0.32,0.39,0.1,0.26-0.1.48-0.52.94-0.06.23-0.16.16v0.13l-0.16.23-0.13.06v0.16l-0.29.29v0.13h-0.06l-0.1.23-0.13.06-0.07.23-0.39.29-0.06.23-0.16.07,0,0.19-0.1.1-0.07.23-0.29.23v0.1l-0.55.58-0.71.68-0.35.48-0.23.06-0.23.29h-0.1l-0.87.68-0.39.32-0.16,0v0.06l-0.94.26-0.45.16h-1l-0.84.06,0-.06h-0.26l-0.42-.13-0.48-.26-0.32-.55L165,26.79V26.4l-0.26-.48-0.32-.42-0.1-.94v-1.1l0.23-.94,0.1-.48h0.06l0.06-.52,0.32-.94,0.32-1,0.16-.16,0.26-.74,0.13-.19,0.13-.52,0.06-.06,0.06-.39,0.13-.1,0.1-.48,0.06-.06V16.78l0.16-.16,0-.22,0.23-.48,0.1-.1,0.29-.94,0.16-.29,0.36-1,0.45-.9,0.29-.71,0.16-.19,0.26-.68,0.39-.35,0.32-.16h2.23l0.45,0.1,0.23,0.16,0.16,0.23Zm-5.39,7.16,0.23-.1L167.7,18l-0.16-.06-0.23.1,0,0.1,0.06,0.1Zm1.16-1.1V17.07l-0.16-.16-0.07.1,0,0.13,0.1,0.06h0.1Zm0.36-1.32,0,0.29,0.1,0.23,0.1,0.07,0.1-.13-0.1-.29,0.32-.1,0-.13-0.55,0Zm0.58-.81h0.13l0.1-.13-0.23.06v0.06Zm1.26-1.52-0.19-.45-0.1-.06h-0.16l0.23,0.52,0.16,0Zm4.16-6.23-0.1.06V7.52l-0.26.42-0.16.16-0.87.52-0.16,0-0.16.19h-0.48l-1.1-.19-0.39-.23-0.19-.19L171,8,170.9,8,170.48,7l-0.06-.45,0.1-.58,0.26-.48,0.13-.06L171.15,5l0.26-.29,0.23,0,0.16-.13,1-.13,1.06,0.29,0.74,0.61,0.06,0.23,0.1,0.1,0.13,0.39,0.06,1.13V7.33Zm-1.55-.77,0.16,0.06,0.06-.16-0.13-.06-0.06.1Z" transform="translate(-0.63)"/><path class="cls-2" d="M196.91,25.78l-0.71.58-0.84.58-0.71.39-0.26.06-0.23.16-0.36.13-0.55,0-0.1.1-1,0-0.77,0-0.06-.1-0.45-.13-0.48-.29-0.71-.71-0.19-1L189.3,25l-0.06-.48,0.06-.71,0.1-.07,0.1-1,0.19-.48,0.06-.52,0.32-1,0.26-.39,0.06-.26,0.16-.16V19.78h0.06l0.26-1,0.39-1,0.32-.84,0.1-.1,0-.19h0.07l0.1-.39,0.16-.19,0.06-.52,0.36-1,0-.52-0.23-.48-0.32-.23-1,.06-0.65.29-0.07.16L190,14l-0.87.58-0.13.19-0.23.1-0.16.23-0.19.06-0.1.1,0,0.16-0.19.13,0,0.16-0.19.13-0.32.9-0.42.94-0.06.23-0.16.23v0.13l-0.19.42-0.1.39-0.16.16v0.23l-0.16.19v0.23L186,20.3l-0.06.36-0.39.94-0.39,1-0.39,1-0.39.9-0.13.19-0.16.61-0.29.71-0.16.16-0.13.45-0.45.65-1,.13-0.48.1-1.07-.1h-0.45l-0.23-.1-0.19-.19-0.13-.65,0.1-.06,0-.23,0.42-.9,0.39-.94,0.1-.35,0.16-.16L181,23.3l0.19-.94,0.16-.19,0.42-1,0.36-1,0.42-.94,0.16-.55,0.23-.39,0.32-.94,0.35-.9,0.1-.26,0.1-.06,0-.23,0.16-.13,0.29-.94,0.1-.55-0.1-.48L184,13.59l-0.52-.13-0.45,0-0.87.45-0.45.19-0.87.61-0.65.45,0,0.19-0.29.36-0.19.45-0.23.29-0.06.23-0.16.23-0.26.94-0.39.94-0.39,1L178,20.2l-0.36,1-0.32.9-0.29.84-0.19.16V23.2l-0.16.23-0.26.9-0.26.48-0.1.39-0.06.06-0.1.52-0.19.45-0.23.36-0.39.42-0.42.32-0.39.19-1-.06h-1l-0.36-.1-0.13-.16L171.65,27l0.13-.81-0.06-.32,0.26-.42,0.39-1,0.45-1,0.29-.9,0.42-1,0.1-.13,0-.23,0.45-.94,0.36-.9,0.23-.68,0.06-.26,0.36-.81,0.1-.35,0.1-.06,0.35-1,0.26-.42,0.36-1,0.26-.55,0.06-.35,0.1-.1,0-.23,0.19-.19,0.35-1,0.52-.87,0.06-.23,0.1-.1,0-.19L178.2,11l0.1-.13,0.52,0.1,0.87,0.45,0.19,0.16H180v0.07l0.23,0.16,1,0.29,0.52-.19,0.39-.32,0.23-.1,0.16-.19,0.35-.16,0.16-.19h0.13V10.87l0.19,0,0.94-.39,0.48-.19,1-.07,1,0h0.13l0.52,0.32,0.06,0.1h0.13l0.16,0.19,0.23,0.1,0.06,0.23,0.19,0.16,0.19,0.48,0.29,0.39,0.13,0.06,0.42-.13,0.74-.61,0.65-.35,0.61-.36,0.52-.13,0.16-.13,1-.32,0.94-.1,1,0.16,0.58,0.19,0.74,0.68V11.3l0.29,0.45,0.19,0.87v0.55l-0.23,1.1-0.1.65-0.1,0-0.06.39-0.13.1-0.1.42-0.48.9-0.23.81,0,0.1h-0.06l-0.06.35-0.16.16v0.16h-0.06l-0.29.94v0.06h-0.06v0.16h-0.1v0.13h-0.06v0.16h-0.07l-0.29.84-0.36,1.06-0.39,1-0.32,1-0.1.71,0.19,0.48L193.27,25l0.36,0.23h0.26l0.48-.23,0.87-.58,0.74-.65,0.74-.77,0.36-.36,0.26-.42,0.16-.16,0.1-.23,0.36-.39,0.23-.42,0.58-.71V20.2h0.06l0-.13,0.19-.16,0.29-.65,0.29-.39,0.39-.32,0.29-.1,0.45,0.1,0.39,0.36,0.13,0.19,0,0.32,0.06,0.1L201.3,20l-0.36.68-0.16.06,0,0.19-0.22.16-0.32.61-0.32.42,0,0.23-0.19.16-0.58.81-0.68.87-0.71.81-0.71.71,0,0.06Zm-22.07-3.1,0.26,0.19,0.1-.1-0.29-.23,0,0Zm0.52-.58,0.13-.19-0.13-.1L175.2,22l0.06,0.1Zm2-3.48,0.16,0.06,0.06-.16-0.16-.06,0,0.1Zm1.1-1.9,0-.29-0.1-.1-0.06.13v0.19Zm0.35-2v0.13l-0.16,0,0,0.1,0.19,0.1V14.94l0.23-.19v-0.1l-0.16.07Zm0.74-.45,0.29,0.45V14.23l-0.26,0Zm2.94,9.49v0.13l0.29,0.1,0.13-.23-0.13-.07-0.26,0Zm0.65-1.52,0.16,0,0.06-.1-0.1-.16h-0.06l-0.06.19v0.1Zm0.58-1.9-0.19-.06,0,0.13,0.13,0.06,0.1-.06V20.36Zm-0.23.87h0.16V21.11h-0.16v0.13Zm0.74-2.32V19l0.06,0.06h0.16l0.06-.06-0.06-.23h-0.16v0.06Zm0.52-1,0.13-.23V17.52l-0.1,0-0.16.1v0.23Zm0.13,0.74V18.33h-0.19l0,0.23,0.1,0.06h0.06Zm0.39-4.1L185,14.46v0.13h0.23V14.52ZM185,19.91h0.13l0.1-.19h-0.16l-0.06.13v0.06ZM185.07,12l0.23-.1,0.06-.29-0.23-.06-0.13.32Zm0.06,5.78,0,0.16,0.26,0.26v0.16l0.16,0.13,0.06-.07V18.33l-0.13-.23,0-.32-0.06-.06-0.26.06Zm1.19-2.49-0.16-.16-0.32-.1-0.19.1V15.3l0.29,0V16.2l0.29,0.16,0,0.13-0.26,0-0.13.19h-0.29l0,0.13-0.32.16,0,0.23,0.16,0,0.36,0.1,0.13-.19,0.39-.13,0.16,0,0.16-.29,0-.23,0.35-.39,0-.52-0.1-.36-0.29.1h-0.06Zm0-2.71-0.16.19-0.23.1-0.1-.23-0.13,0-0.29.29-0.07.26,0.07,0.13,0.29,0.19,0,0.29-0.16.26,0.23-.1,0.13-.19-0.1-.45,0.13-.06,0.13,0,0.1,0.23,0.13,0.13V13.65l0.13-.1,0.1,0.19-0.19.13,0,0.13,0.23,0.06,0.07,0.13,0,0.55,0.16,0.19,0.39-.29h0.23l0-.13-0.23-.26V14L187,13.85l0-.1,0.13,0,0.06-.23-0.36-.35-0.06-.26,0.06-.13-0.48-.13h-0.1Zm-1,3.13v0.13l0.23,0.1,0.16-.1V15.75l-0.26-.06Zm0.52-3.48H186l0.1-.07,0-.16L185.94,12l-0.07.19v0.1Zm0.74,0.58v0.58h-0.13l-0.13-.29,0.1-.26,0.1,0h0.07Zm0.29,2.39,0-.13-0.13,0-0.13.1,0.23,0.06h0.06Zm0.36-2,0.23-.06V13.07h-0.16ZM187.49,14l0.35,0.07,0.06-.1V13.72l-0.26.1-0.13.13Zm3.87,8.49-0.23-.1-0.13,0,0.13,0.26-0.07.1,0.13,0.36-0.23.1-0.06.19L191,23.49l0.19-.1,0.19-.26-0.23-.52h0.29l0.32-.13,0.06-.1-0.13-.06-0.26,0Zm-0.23,1.68h0.16V24h-0.16v0.16Zm0.29-3h0.16V21h-0.16v0.16Zm0.45,2.42H192l0.1-.16-0.23-.06v0.23Zm0.94-4.1-0.23.13-0.06-.39L192.3,19l-0.19.16,0,0.29,0.26,0.36-0.16.13,0.16,0.1,0.1-.23,0.1-.06,0.16,0L193,20.07h0.16l0.13-.52-0.1-.39L193,19l-0.13.19,0,0.23v0.1Zm-0.42,1.23,0.23-.1,0.06-.19-0.06-.07-0.23,0-0.1.16,0,0.1Zm0.19-2.39h0.13V18.1h-0.13v0.23Zm0.16,0.36,0.06,0.13h0.13l0.1-.1V18.52l-0.26.1ZM193,12.62l0,0.29,0.19,0.23,0.13,0,0.55,0.19,0.19-.16-0.06,0V13h-0.16l-0.13-.23,0-.13,0.23-.23L194,12.26l-0.29,0-0.39.26-0.19.06H193Zm0.06,3.52h0.16V16H193.1v0.16Zm0,0.81L193.36,17l0.13-.16-0.23-.06-0.16.1v0.06Zm0.29-1.1h0.13V15.62H193.4v0.23Zm0.74-.32,0-.13-0.19-.19-0.13,0,0.1,0.23,0.19,0.13h0.06Zm0.06-1.29V13.94H194l0,0.26,0.1,0h0.1ZM194.49,15V14.75l-0.36-.1L194.27,15l0.13,0h0.1Zm0,1.81,0.1-.16-0.32-.13,0,0.16,0.13,0.1Zm-0.13-.71,0.32,0.1,0.1,0,0.07-.36-0.13-.1-0.07.1-0.23.1-0.06.1v0.1Zm0.29,1.39,0-.29-0.13-.1,0,0.23,0.13,0.16h0.06Zm0.06-2.58V15.1l0.13,0.16,0,0.19,0.26,0.06,0.1-.13L195,15.23l0.13-.19-0.23-.13h-0.13Zm0.58-2.19,0.23-.32-0.06-.32-0.39.16L195,12h-0.13l0.06,0.42,0.32,0.26Z" transform="translate(-0.63)"/><path class="cls-2" d="M210.31,25.3l0.13,0,0.74-.19V25.07h0.16V25h0.13v-0.1h0.16V24.85h0.13l0.39-.35h0.13l0.39-.29,0.55-.58,0.26-.42,0.39-.32,0.1-.29,0.35-.32,0.16-.35,0.58-.65v-0.1l0.71-.81,0-.19L216,20l0.36-.74,0.16-.13,0.1-.23,0.26-.29,0.58,0,0.36,0.13L218.11,19l0.23,0.55-0.13.45-0.65,1-0.19.45-0.19.13-0.52.87-0.55.87-0.16.19-0.1,0-0.1.23-0.29.26v0.13l-0.71.77-0.68.77-0.39.26-0.23.29h-0.16l-0.13.23H213v0.06l-0.48.26-0.58.45-0.94.29-0.74.29-1.1,0-0.9-.06-0.39-.13-0.39-.23L207.08,27l-0.45-.68-0.19-.19-0.16-.94-0.06-1.13,0.13-1,0.29-1,0.23-1,0.06-.26,0.1-.1V20.53l0.1-.06,0.16-.36L207.4,20V19.88h0.06l0.1-.45,0.23-.48,0.1-.45H208V18.36l0.48-.9,0.29-1,0.19-.48,0-.23h0.1V15.65l0.16-.39,0.13-1.1V14L209,13.65l-0.23-.13h-0.42l-1,.29-0.93.55-0.36.36-0.23.1-0.36.42-0.42.32-0.29.39-0.23.45-0.06.36-0.06,0-0.06.32h-0.1l-0.06.42-0.29.61,0,0.29-0.1.1-0.35,1-0.39,1-0.29.74-0.16.13-0.32.9-0.32.77-0.19.71-0.13.16-0.42,1-0.29.94-0.42.94-0.42.48-0.35.13-1.13.13L198,27.4l-0.26-.13h-0.55l-0.48-.13-0.1-.23V26.4l0.32-1,0.1-.35,0.1-.07,0-.22,0.52-.9,0.39-1,0.13-.39,0.1-.13,0.1-.52,0.65-1.61,0.39-.94,0.16-.45,0.1-.06,0.77-1.94,0.39-.9,0.36-1,0.35-.74,0.16-.65,0.1-.06,0.32-.94,0.39-.9,0.29-.58,0.39-.29,0.26,0,0.9,0.42,0.29,0.13,0.13,0.16H205v0.06l0.9,0.45h0.32l0.45-.16,0.87-.61,0.68-.39h0.13v-0.1h0.16V10.75l0.58-.13V10.55l0.94-.23,0.45-.1h1.16l0.48,0.13,0.74,0.58,0.39,0.32,0.13,0.52,0.1,0.06,0.19,0.61,0,1-0.26,1-0.32,1-0.26.58,0,0.26-0.29.58-0.06.26-0.1.1L212,18.2l-0.16.23-0.13.45-0.45,1-0.16.32-0.13.48-0.26.65-0.1.1L210.4,22l-0.29,1-0.1.61H210l0,1.06L210,25l0.26,0.23Zm-8.1-6.52-0.26.26v0.23l0.19,0.16,0.13,0,0.16-.74-0.23-.16-0.06.13,0,0Zm0.87-4.23V14.43l-0.1-.1h-0.19v0.16l0.06,0.1H203Zm0.65,1.23,0.26,0,0-.26-0.06-.06-0.23,0-0.06.1v0.16Zm0-2,0.16,0.06,0.06-.13-0.13-.1-0.06.1Zm4.39,6.36L207.89,20l0,0.13h0.19V20.11Zm1-1.32,0.52,0.06,0.06-.35-0.52.06-0.06.16v0.06Zm0,0.68,0.19-.06V19.2l-0.13-.06-0.06.23v0.1Zm0.06,3.71h0.16V23h-0.16v0.16Zm0.16-.29h0.16l0.13-.16-0.06-.26-0.19-.16h-0.13l0.1,0.48v0.1Zm0.42-1.9,0.06-.23-0.06-.13H209.6l-0.1.16L209.66,21h0.07Zm0.52-3.81,0,0.1,0.29,0.13,0,0.07-0.19.16H210l-0.13.35,0.26,0.23,0,0.16-0.23.06-0.1.13,0,0.1,0.26-.06,0.23-.45L210.14,18l-0.06-.1,0.68-.29-0.23-.87h-0.23l-0.06.35v0.06Zm-0.35,2.94,0.23,0,0.06-.1V19.82H210l-0.07.23v0.06Zm0.36-5.49h0.13l0.1-.13-0.23-.1v0.23Zm0.29,1h0.06l0.19,0.29,0.23-.13,0.1-.23V15.43l-0.26-.07-0.23.13-0.06.1ZM210.76,14l0.13,0,0.1-.23-0.06-.13-0.16-.06V14Zm0.94,0V13.81l-0.29-.39-0.16-.1-0.07.06,0.26,0.39,0,0.13-0.06.19L212,14.39l0-.1-0.1-.16-0.19-.1Zm-0.29,2.61,0.06-.29h-0.29l0,0.16,0.13,0.1Zm-0.13-3.81,0.1,0.06,0.77-.26L212,12.52l-0.13-.19-0.13,0-0.07.13-0.32.16-0.1.13v0.07Zm0.42,2-0.23.45v0.13l0.16,0.13L212,15.1l0.13-.26-0.1-.06h-0.29Z" transform="translate(-0.63)"/><path class="cls-2" d="M225.32,10.26l0.06-.07h1l0.42,0.13,0.06,0.1,0.52,0.13,0.39,0.29L228.19,11l0.71,0.74,0.19,0.16,0.1,0.23,0.13,0.06v0.16l0.16,0.13,0.1,1,0.1,1-0.06.52-0.13.36-0.16.87-0.29.64-0.16.16-0.19.58-0.16.06,0,0.23-0.52.77-0.77.74-0.84.58-0.45.26-0.16,0-0.13.16h-0.16v0.06l-0.94.29-0.55.13h-0.26l-0.23.1h-1l-2.06.07-0.13,0-0.39.36-0.1.23-0.1,1,0,1h0.06l0.06,0.23,0.58,0.74L220.93,25l0.32,0.16,1.1,0.19,1.07,0,0.45-.1,1-.39,1-.42,0.71-.55h0.16l0.06-.13h0.13l0.36-.39,0.29-.1,0.32-.42,0.29-.13,0.23-.32,0.42-.32,0.61-.81,0.65-.81,0.61-.81,0.42-.55,0.26-.42,0.55,0,0.45,0.06,0.45,0.42,0.13,0.42-0.19.65-0.19.19-0.1.26-0.32.36-0.58.84,0,0.23-0.36.36v0.16L229.74,24l-1.32,1.32-0.42.26-0.06.1-0.23,0-0.19.19-0.81.55-0.13,0-0.16.19h-0.16v0.06l-0.52.13-0.06.1-0.52.1-1,.29-0.13,0-0.06.1-1,.13H222.9v0.06l-0.74.06-0.23.1-1.06-.1h-0.48l-0.81-.26-0.52-.06-1-.45-0.39-.23-0.19-.19-0.26-.1-0.13-.29L217,26.14l-0.06-.23-0.42-.58-0.26-.9-0.13-1-0.06-1,0.1-1,0.13-.52,0-.52,0.23-.94,0.29-.94,0-.39L216.9,18l0.13-.45,0.39-.71L217.8,16l0.16-.26,0.06-.23,0.19-.13,0.13-.39h0.06l0.48-.84,0.16-.19,0.1-.26,0.71-.68,0.39-.32,0.68-.74,0.26-.29,0.39-.19,0.45-.32,0.36-.13,0.16-.19,0.48-.23,1-.29,1-.06h0.32Zm-7.55,9.81h0.16V19.78h-0.16v0.29Zm0.52-.39v0.13l0.23,0.1,0.16-.1V19.69l-0.32,0Zm1-1.29v0.13l0.06,0,0.1-.19-0.1-.06v0.06Zm0.35-1.32,0.39-.48,0.07-.19-0.23-.06-0.26,0-0.1.52L219.61,17Zm0.06,0.52,0.16,0.06,0.06-.16-0.13-.06-0.06.1Zm5.78-4.1-0.55,0-0.74.26-0.19,0-0.71.61h-0.13l-0.68.81L222,16l-0.48.87,0,0.16h-0.1V17.2h-0.07l0,0.23-0.39.81,0,0.23,0.23,0.29,0.19,0.1h1.19l0.39,0,0.19-.16,0.26-.06L224,18.2l0.06-.1,0.19,0,0.68-.77,0.36-.61,0.42-.94,0.39-1,0.06-.71-0.36-.39Zm-4.58,1.45,0.32-.1,0.1,0V14.65l-0.26,0-0.16.19v0.06Zm1.1-.65,0.06-.13L222,14h-0.1l-0.06.1,0.07,0.16Zm3.78-2.48L226,11.88l0.1-.16-0.26,0Zm0.9,1.23V12.88l-0.06-.1-0.16,0,0,0.26,0.13,0h0.06ZM227.35,16l-0.06-.19-0.16,0,0,0.13,0.13,0.1h0.06Zm-0.16-.87h0.16V14.81h-0.16V15.1Zm0.1-3.39,0.1,0.06,0.13,0,0.06-.1-0.13-.06-0.16.06v0.06Zm0.65,2.71-0.19-.06,0,0.13,0.13,0.06,0.1-.06V14.43Zm0.16-.35,0.26,0,0.26-.19-0.26-.1-0.42,0v0.16L228.06,14Z" transform="translate(-0.63)"/><path class="cls-2" d="M240.61,25.78l0.23,0.1,0.94-.48,0.16-.19,0.94-.58L243,24.4l0.23-.1,0.36-.39,0.81-.61,0.68-.77,0.71-.81,0.61-.81,0.29-.39,0-.13,0.16-.16V20.11l0.23-.29v-0.1l0.32-.39,0.29-.48,0.36-.32h0.45l0.19,0.06v0.06l0.45,0.23,0.26,0.39,0,0.52-0.32.58-0.39.39-0.1.45-0.19.19-0.13.32h-0.06l0,0.13L248,22l-0.1.19-0.32.29L247,23.3l-0.68.77-0.74.71-0.74.74-0.81.58-0.45.26-0.26.29-0.87.58-0.26.1-0.87.52-0.9.48-0.32.13-0.23.16-0.29.06-0.71.68-0.23.74-0.19.29-0.35.9-0.32.74v0.13l-0.23.32,0,0.23-0.16.16-0.1.32-0.26.32-0.07.23-0.19.13,0,0.13-1.23,1.61-0.29.29L235,36l-0.1.16-0.23,0-0.19.19-0.9.45-0.45.19-1,.13-1.1-.07-1-.29-0.26-.06-0.06-.1-0.42-.23L228.9,36l-0.52-.84-0.13-.39-0.1-1,0-.29,0.32-.77,0.26-.45,0.35-.39,0.1-.23,0.77-.68,0.1-.13,0.23-.06,0.36-.39,0.87-.45,1-.48,1-.39,0.13,0,0.19-.19,0.94-.39,0.42-.26,0.68-.77V27l-0.1-.13-0.23-.1-0.81.39-0.23.16-0.39.1-0.1.13-0.94.16h-0.58l-1-.16-0.23-.1,0-.1H231L230.67,27h-0.13l-0.16-.16,0-.13-0.16-.19-0.1-.32H230l-0.39-1,0.1-.39-0.1-1.13,0.19-1,0-.26,0.06-.06V22.14l0.1-.06,0.19-.58,0.16-.16,0.13-.74,0.36-.84,0.32-.94L232,16.94l0.36-1,0.29-.9,0.1-.1,0.1-.35h0.06l0-.19,0.19-.19V14.1l0.16-.23,0.26-.84,0.23-.81,0.06-.13,0.1,0V11.91H234l0.16-.52h0.07V11.26l0.39-.48,0.87-.23,1.32,0,0.55,0.06,0.35,0.13,0.45,0.39v0.29l-0.36.68-0.16.65-0.16.23-0.13.45-0.13.16v0.13l-0.1.13-0.06.26-0.13.19v0.13l-0.16.16,0,0.35-0.42,1-0.32.68-0.32.94-0.26.42-0.32,1-0.26.45-0.32,1v0.13l-0.35.81-0.16.16-0.32,1-0.29,1,0,0.55,0.16,0.58,0.26,0.23,0.45,0.06,0.87-.26,0.16-.19,0.26-.13,0.68-.84,0.45-.35,0.06-.23,0.39-.36,0.55-.87,0.13-.32L238,21.2l0.06-.26,0.42-.55,0.19-.32,0.06-.26,0.26-.29,0.13-.48,0.29-.45,0.1-.45,0.19-.48,0.1,0L240,17.1l0.1-.06,0.19-.42,0.26-1,0.26-.52,0.16-.74,0.84-1.87,0.19-.45,0.23-.9,0.32-.36,0.45-.16h1l0.61,0,0.26-.1,0.61,0.1,0.48,0.19,0.23,0.29v0.42l-0.42,1-0.29.74-0.42.9-0.36,1-0.39.94-0.13.23-0.1.06-0.19.42-0.16.81-0.39.87-0.39.94-0.42,1-0.39.9-0.39,1-0.39.9-0.35,1-0.1.13-0.1.52-0.36.65,0.06,0.26,0.07,0Zm-7,5.2-0.45.16-1,.45-0.71.42-0.06.13-0.23.1L231,32.5l-0.19.16-0.45.81,0.06,0.39,0.16,0.26L231,34.34h0.58l0.48-.19,0.35-.23,0.71-.74,0.29-.45,0.1-.26,0.16-.16,0.39-.68,0.1-.39-0.1-.16L233.8,31l0-.06-0.1,0Zm-2.48-6.07h0.13V24.78h-0.13v0.13Zm1.16-4.39V20.4l-0.16-.16-0.06.13,0.13,0.16h0.1Zm1-2.78,0.32,0.13,0.16-.16v-0.1h-0.65l0.1,0.13h0.06Zm-0.16,1.77,0.36,0V19.36h-0.36v0.16Zm0.29-1.1h0.16l0-.13-0.19,0,0.07,0.1v0.06Zm1.39-4.84h0.23V13.36h-0.23v0.23Zm0.36,17.75,0.39,0.1,0.1-.55-0.1,0,0,0.1-0.16.16-0.23.1,0,0.06v0.06Zm0.52,2.87-0.23-.1,0,0.13,0.19,0V34.21Zm-0.06-1.26,0.23-.1V32.72l-0.16-.19h-0.06l-0.06.1,0.06,0.23v0.1Zm-0.06-2.71h0.13V30.11h-0.13v0.13Zm0.58-.71-0.1-.07,0-.29H235.8l0,0.16,0.13,0.19L236,29.59l0.1,0Zm-0.29.52,0.1,0.06,0.45,0,0-.1-0.06-.13L236,29.66l-0.13.16V30Zm0.29-3.87h0.29l0-.16-0.1-.06-0.16.13v0.1Zm0.13,4.45,0.1,0.1,0.23,0,0.16-.13,0-.23-0.23-.06-0.26.23Zm1.1-2.13-0.55-.06-0.1.06,0,0.26L237,29v0.16l-0.23.06,0-.26-0.19,0,0,0.16-0.1.39,0.06,0.1,0.16,0,0.19-.13L237,29.2l0.26-.19v0.52l0.16,0,0.1,0.06,0.1,0.19h0.06V29.59l0.1-.19V29.24l0.45-.19,0.06-.19-0.13-.06-0.13.16-0.39.1-0.06,0,0-.13,0.36-.1,0-.39-0.13,0-0.29.1Zm-0.87,2.94,0.13,0.06,0.16-.06v-0.1l-0.1-.06-0.16.06Zm0.23-1.26,0.16,0.06,0.06-.13L236.8,30ZM237,24.33l-0.19-.06,0,0.13,0.13,0.06,0.1-.06V24.33Zm0.07,2.19h0.16l0.07-.23h-0.13l-0.1.16v0.06Zm0.58-.87,0.06-.1-0.13-.19V25.2l-0.29.06,0.19,0.32,0.1,0.06h0.06Zm0.68-1.45,0.13,0.29-0.06.06-0.23-.06-0.1,0-0.19.32-0.23-.1-0.06-.1-0.16,0-0.06.06v0.16l0.39,0.32,0.23,0.1,0.13,0.19-0.06.42L238.19,26h0.16l0.81-.42,0.06,0.13,0,0.36,0.1,0.1-0.06.26,0.16,0.1,0.1-.36-0.06-.55,0-.42L239.35,25l-0.29-.16,0-.26-0.1,0-0.23.16-0.13.23-0.23.13V24.91l0.36-.58,0.23-.07L239,24l-0.13-.32h-0.29l-0.16.45Zm-0.81,3.26,0,0.26,0.23,0,0.16-.16V27.46l-0.1-.06-0.26,0Zm0.52-.77L238,27l0.23,0.13h0.13l0.39-.26,0.29,0v0.65l0.26-.1,0.26-.42,0-.13L239,26.66l0-.06,0.16-.19V26.24l-0.16,0-0.58.32-0.16-.16-0.58-.19,0,0.16L238,26.62Zm0.36-3.81-0.13.35L238.06,23H237.9l-0.13.48,0,0.13,0.1,0.06,0.39-.29,0.16,0.1,0.26-.1h0.16l0.07,0.13h0.13l0.16,0.23,0.06,0.52,0.16,0.13v0.29h0.16l0.13-.16,0.06-.32-0.06,0V24L239.52,24l-0.06-.16h0.26l0.1-.07-0.16-.48-0.29-.48-0.29-.06,0.19-.29,0-.06-0.74.48Zm0.23,4.58-0.16.16,0,0.23-0.23.29h0.16l0.32-.29V27.33l-0.13-.06,0,0.13Zm0.06,1h0.16V28.27h-0.16v0.16Zm1.26-7.1-0.29-.26h-0.23l-0.1.13,0.42,0.45,0.07,0.29L240,22.07,240,21.62l0.06-.06,0.19,0.13,0,0.16L240.61,22l0.16-.52-0.48-.19H240Zm-0.29-2.1-0.23-.1,0,0.06,0.06,0.1,0.16,0Zm0.13,1.68,0.06-.1,0-.1-0.1,0v0.19Zm0.58-.23-0.19-.13-0.16,0,0,0.16,0.06,0.1,0.16,0.06,0.13-.1Zm-0.29,2.1,0.19,0.32,0.16,0.07-0.06-.52-0.16-.16h-0.07l-0.06.23v0.06Zm1.1-2.61,0.13,0,0.1-.13-0.19,0,0,0.06v0.06Zm0.16-.58,0.16,0,0.16-.16,0-.19-0.23-.13-0.16.32Zm0.29,1V20.46l-0.06-.06h-0.23v0.13l0.23,0.1h0.06Zm0.19-4.68H242l0.16-.16V15.72l-0.23-.06-0.1.19v0.1Zm0.45,0.48,0.16,0.1,0.35-.16,0-.29-0.1-.06-0.06.13-0.23.07-0.16.16v0.06Zm0.65-2.26,0,0.1-0.36.16v0.19l0.26,0,0.36-.19V14.26l-0.16-.1h-0.06Zm-0.06,2.94-0.19.13V17.3h0.1l0.13-.13Z" transform="translate(-0.63)"/><path class="cls-2" d="M258.82,28.66l-0.42.23-0.32.42-0.52.94-0.19.32v0.13l-0.16.23L257,31.4l-0.1.1v0.19l-0.16.55v0.48l-0.07.1v1l0,0.48-0.16.48-0.39.19-0.55.13h-0.26l-0.1-.06-0.52,0-0.26-.1-0.35-.29L254,34.3l-0.07-.55L254,32.56l0.19-.9,0.23-.94,0.26-.84h0.1l0.13-.52,0.23-.29V28.95l0.29-.45V28.37l0.16-.1V28.14l0.19-.16,0.48-.87,0.19-.48-0.1-.52-0.42-.68V25.3h-0.06l0-.19-0.16-.19-0.06-.23-0.23-.35,0-.36-0.19-.39L255,22.65l-0.1-1,0-1.1,0.1-1,0.06-1,0.36-1,0.39-.94L256,16.3l0-.23,0.29-.39,0.1-.23,0.19-.19,0.13-.26,0.74-.71,0.71-.68,0.19-.1,0.13-.19,0.23-.1,0.29-.29h0.16V12.88h0.13v-0.1h0.16V12.72l0.48-.13,0.45-.26,0.9-.32h1l0.55,0,0.36-.16,1,0,0.06,0.06h0.52l0.87,0.36,0.35,0.1,0.06,0.1,0.19,0.07,0.32,0.42,0,0.29-0.13.48-0.19.32v0.13h-0.06l-0.13.68H266L266,15l-0.48.32-0.48,0-1-.23h-1.1l-1,.23H261.6l-0.87.48-0.52.42h-0.13l-0.58.55V17l-0.16.06,0,0.23-0.55.94,0,0.23-0.16.19-0.16.68-0.1.9-0.06.55,0.1,0.61h0.07l0.1,1,0.16,0.48L259,23.36l0.19,0.16,0.26,0,0.42-.29,0.74-.68,0.74-.74,0.81-.61,0.71-.77,0.32-.42,0.77-.64,0.74-.71,0.74-.74,0.45-.48,0.23-.06,0.68-.71,0.74-.71,0.71-.71,0.77-.68,0.19-.1,0.06-.13,0.19-.1,0.36-.42,0.23-.42,0-.48-0.19-1.1-0.13-.94-0.07-.48,0.1-.39V9.68l-0.16-.32v-1l-0.16-.9,0.1-1,0.13-.52,0.06-1,0.1-.45,0.26-.64,0.16-.55,0.16-.19,0.23-.45,0.19-.19L271.05,2l0.32-.36,0.45-.35L272,1.07l0.19,0,0.36-.35,1-.32L274,0.16l1-.16,1.13,0.06,0.48,0.07,1.16,0.39V0.58h0.13l0.77,0.55,0.23,0.19,0.06,0.23,0.19,0.13,0.19,0.45,0.1,0.06,0.36,0.94,0.23,1,0,0.52-0.16,1.1-0.1.48-0.22.45-0.23.65V7.42l-0.16.16,0,0.16-0.19.13-0.1.32h-0.06l-0.23.45-0.58.81-0.16.13V9.71l-0.71.77-0.61.68-1.55,1.55-0.58.55-0.19.48-0.1.06,0.1,1,0,0.48,0.26,1,0.06,0.48-0.06.48,0,0.48,0.26,1,0,1-0.07,1.06,0,0.81-0.13.48v0.48l-0.32,1-0.06.26-0.1.1-0.32.94-0.06.23-0.23.32v0.13l-0.29.35-0.39.58v0.13l-0.45.58-0.29.39-0.81.61-0.19.16-0.16,0,0,0.1L270,29l-0.16,0-0.13.16-0.9.29-0.42.13-0.06.1-0.48.13-0.32.16-0.55.13-1,.13-1,0-1.06,0-1-.13-1-.32-0.55,0-0.45-.1-0.64-.26v-0.1h-0.13l-0.36-.19v-0.1l-0.19,0-0.42-.29-0.23-.06Zm-1.74-8.2-0.06,0-0.13.06v0.16l0.23-.06V20.52ZM257.15,21h0.16V20.82h-0.16V21Zm0.52,1.52-0.1-.23-0.19-.06-0.06.32,0.16,0.16,0.19-.13V22.49ZM258,25.2l0,0.06,0.06,0.1h0.32l-0.13-.19h-0.19Zm0.48,0.87-0.16.29,0,0.16-0.13.06-0.1-.07,0,0.13,0.19,0.16V27l0.29-.06L259,27.33l0.71,0.1,0.19,0.19,0.13-.16,0.42-.29V27l-0.23-.13-0.36-.45,0.13-.23L259.92,26l-0.13-.06-0.1,0,0,0.55-0.07.26-0.26.1-0.19-.13-0.16.19-0.13,0-0.19-.16-0.1-.23,0.13-.19V26.24l-0.26-.48-0.1,0-0.06.06v0.13L258.5,26Zm0.1-1.39,0.13-.19V24.4l-0.23-.06,0,0.26,0.06,0.07Zm0.29,1,0.16,0.19,0.1,0,0-.1-0.42-.26-0.1-.16-0.16.06,0.32,0.26ZM259,26.3v0.13l0.36,0.1,0-.1-0.16-.19-0.16,0ZM261,27l0-.26-0.39,0v0.13L260.66,27h0.23Zm-0.13-1.39-0.06-.26-0.1.1,0.13,0.16h0Zm0.19,2,0.06-.13V27.24L261,27.17l-0.06.26,0.06,0.1ZM261.24,28l0.06-.13-0.19-.16-0.06.23,0.1,0.06h0.1Zm8.84-10.65-0.77.68-0.36.36-0.81.64-0.74.71-0.74.74L266,21.2l-0.36.39-0.81.64-0.74.74-0.32.35-0.81.71-0.77.71-0.42.45-0.29.42,0,0.16,0.19,0.36,0.74,0.42,1,0.19,0.55,0.1,1,0,0.58,0,0.9-.19,1-.26,0.19,0V26.24h0.13l0.19-.19L268,26l0.84-.65,0.61-.48,0.13-.29,0.16-.06,0.1-.32,0.29-.39,0.1-.32,0.26-.39,0.32-1,0.06-.07,0.06-.58H271l0.1-.71-0.1-1,0.1-.74-0.16-1-0.13-.58-0.13-.19-0.19-.1h-0.13l-0.16.13Zm-8.62,10.94,0.23,0.06,0.1-.06,0-.13h-0.26l-0.1.06v0.06Zm0.94,0.1h0.16V28.2h-0.16v0.16Zm0.68-.29,0-.13-0.13-.06-0.13.06L263,28.08h0.1Zm0.42,0.71,0.29,0.39,0.1-.23V28.72l-0.68-.07v0.13h0.29Zm0-.58h0.16l0.06-.23H263.6l-0.1.16V28.2Zm3.39,0.06-0.23.1,0,0.1,0.23-.06V28.33Zm2.68-.81,0.26-.19,0-.16H269.7l-0.16.16v0.16Zm0.68-12.1,0.26,0.19h0.16l-0.1-.23-0.23-.1-0.06.06Zm0.52,0.48h-0.23l0,0.1,0.1,0,0.1-.06V15.85Zm0.06-.77h0.36l-0.06-.26-0.36-.35-0.06.06L270.83,15v0.1Zm0.23-4.68,0-.29L271,10h-0.13l-0.07.23,0.06,0.13,0.13,0h0.1ZM270.89,16l-0.13.23,0.52-.06,0.13,0.06,0-.1L271,16h-0.06Zm0.29,10.45H271l-0.1-.06h-0.16l0,0.1L271,26.66h0.1l0.07-.1v-0.1ZM270.89,9.78l0.26,0,0-.16-0.26,0,0,0.1V9.78Zm0.29,4.1L271,14l0,0.1,0.23-.07V13.94Zm-0.13-2.39,0.13,0.06,0.07-.16-0.13-.07,0,0.1Zm0.42-3.29V7.91h-0.29l0.1,0.23,0.13,0Zm-0.23,5,0.16,0.36v0.26l0.07,0.1,0.16,0,0.1-.16,0-.61L271.63,13l-0.23,0-0.13.1ZM271.7,24.4l-0.32-.26,0,0.06h0.07l0.23,0.26Zm0.94-10.3-0.06.06-0.23-.06-0.23.32-0.19,0-0.06.16-0.23.13v0.32l-0.19.1,0,0.19,0.23,0.1,0.29,0,0.13-.45V14.68l0.23,0.1h0.26L272.7,15l0.32,0.1,0-.16,0.16-.36-0.13,0-0.1-.52-0.07-.1-0.13,0-0.07.16Zm-0.77,1.84-0.26,0-0.07.16,0.26,0.06,0.26,0,0.16,0.19h-0.07v0.39l0.13,0,0.1-.23,0.06,0,0-.52-0.16-.13,0.06-.42-0.1-.07-0.29.42,0,0.13Zm0.35-8.71,0-.13L271.92,7l0,0.13,0.19,0.06h0.06ZM272.63,11l-0.29.1-0.42.36,0.1,0.23,0,0.29L272,12.2l0.06,0.07,0.19,0,0-.1-0.06-.23,0.13-.06V11.49h0.39l0.07-.23h0.13V11l-0.16-.32-0.26-.06v0.16L272.6,11Zm-0.58,2.19,0.29-.16,0.1,0.1-0.13.26,0,0.16,0.23,0.16,0.16-.36V12.72l-0.48.06L272,12.72l-0.06.13,0,0.26L272,13.2Zm0.23,10.3h0.23l0-.1-0.19,0v0.13Zm0.06-14h0.23l0-.1-0.19,0V9.49Zm0,7.39v0.58l0.07,0.23,0.13,0.16,0.26,0.06,0.1-.26L272.51,17l0.36-.16,0-.16-0.1-.06-0.23.23h-0.16Zm0,6.13,0.13,0,0.1-.16h-0.13l-0.1.13V23Zm0.16-16.59,0.23-.1,0.07-.1V6.07l-0.23.1-0.07.19V6.42Zm0.52,12-0.1-.26L272.63,18l-0.06.13,0.16,0.23L273,18.46Zm-0.16-5.36,0.06,0L273,13V12.91l-0.1-.06-0.07,0v0.19Zm0.23,0.74,0.1-.36,0-.16h-0.23l-0.06.26,0,0.13,0.13,0.1Zm-0.23,1.74v0.19l0.07,0.13L273.09,16l0.07,0.16,0.1,0V15.85l0.1-.16,0-.26-0.13-.06Zm0.58-3.36-0.39-.06-0.13.06,0,0.13,0.13,0.1v0.07l0.19-.07,0.45,0.16,0.16-.16,0-.16-0.19-.19-0.16.06Zm-0.22,11.13,0.1-.1,0-.1-0.23.06,0.1,0.19V23.33h0.07Zm1.61-20-0.74.71-0.35.42,0,0.19-0.26.45V5.26h-0.06l-0.16,1-0.13,1.1V7.81l0.1,0.52,0,1,0.13,0.23,0.39,0.23,0.42-.26,0.71-.74L275.54,8l0.32-.35L276.15,7l0.19-.1V6.78l0.23-.45,0.23-1V5l0.1-.06,0-.19L276.67,4l-0.42-.42-0.35-.19-0.78-.06-0.23.06h-0.07Zm-1.74,13.52,0.07,0.29,0.1,0.06,0.29-.48-0.36.16Zm0.36,2.35,0.06-.1-0.06-.36-0.1,0,0,0.29,0.06,0.13h0.07Zm3-17h0.16L276.67,2h-0.16l-0.07.16V2.19Z" transform="translate(-0.63)"/><path class="cls-2" d="M299.77,10.81l0.06,0.52-0.36.94-0.23,1-0.29,1-0.13.52-0.1.07-0.13.74-0.29.65v0.23l-0.13.16-0.32.84-0.29.45V18l-0.39.77-0.42,1-0.29.39V20.3l-0.1.1-0.32.87-0.1.06-0.1.23,0,0.29L295.9,22l0.36,0.26,0.55,0.1,0.55-.06,0.45-.13,1-.52,0.45-.35h0.16V21.27l0.39-.26,0.06-.1,0.23-.13,0.32-.45,0.29-.23,0-.19,0.32-.39,0.61-.9,0.29-.19,0.36,0.1,0.45,0.29,0.32,0.35,0.06,0.55L303,20v0.13l-0.19.16,0,0.23-0.36.35V21l-0.19.16,0,0.13-0.29.23,0,0.19-0.78.68-0.84.68-0.74.58-0.26.13-0.13.16H299l-0.65.29-0.87.26-0.48,0-0.48-.07-0.48.07-1-.1-0.55-.19-0.55,0-0.39.26-0.77.77L292,26l-0.55.45-0.71.48-0.94.39-0.23.13-0.42.1-0.49.23-1.06,0-1-.1-0.39-.1-0.74-.29-0.55-.55-0.13-.06,0-.19-0.13,0,0-.19h-0.06V26.17h-0.1l-0.13-.42L284,25.49l-0.29,0-0.19.13-0.06.13-0.78.65-0.84.52-0.26.26-0.23.06-0.19.16-0.84.16-1,.23H278.8l-0.52-.1-1-.42-0.64-.55-0.07-.23L276.25,26l-0.1-.94-0.1-.52V24l0.22-.84,0.07-.77,0.19-.45,0.32-1,0.23-.61,0.1-.42,0.1-.07,0.13-.23V19.46h0.06V19.3h0.1V19.14h0.07V19h0.06V18.85h0.06V18.72h0.1l0.26-.9,0.36-.81,0.32-1,0.39-1,0.13-.42,0.16-.13,0.06-.35,0.26-.42,0.36-1,0.42-.84,0.13-.52,0.26-.45,0.42-.26,1.07,0,0.52-.06,1,0.13h0.13L284.54,11l0,0.19,0.06,0-0.1.52-0.42.94-0.23.68-0.1.1-0.13.45-0.22.39-0.1.29-0.13.1-0.26.94-0.39.77-0.32.9-0.13.1-0.29.94-0.36.94-0.77,1.87-0.35,1-0.32,1-0.16.39,0,0.58,0.06,0.48,0.29,0.39,0.22,0L281,25l0.13-.13,0.26-.1,0.74-.68,0.42-.23,0.58-.68V23l0.64-.77,0.19-.16,0.1-.26,0.19-.16,0.19-.45,0.1-.1,0.1-.39,0.48-.61,0.36-.48,0-.19h0.1l0.29-.9,0.29-1,0.42-.87,0.35-1,0.39-.94,0.39-1,0.36-.94,0.23-.39V12.36l0.16-.23,0.13-.87,0.13-.06,0.26-.39,0.42-.16,1.13,0,1.07,0,0.55,0.06,0.36,0.16,0.1,0.23-0.07.48-0.32,1L292,13.1l-0.16.13v0.16H291.8l-0.16.45-0.1.1-0.16.55-0.1.07-0.1.48-0.1.1v0.23l-0.16.13,0,0.19-0.45,1-0.13.52-0.26.68-0.26.45,0,0.26-0.16.23,0,0.23-0.32.64-0.16.16-0.26.94-0.19.52-0.42.81-0.06.36h-0.07v0.16H288l-0.1,1,0,0.39-0.06.13,0,0.26,0.26,0.39,0.23,0.16h0.74l0.87-.52,0.81-.65,0.36-.39,0.26-.42,0.06-.29-0.19-1,0.16-1,0.29-.35,0-.19,0.39-.35,0.16,0,0.1-.19,1-.26,0.48-.26,0.32-.39,0.45-1,0.39-1,0.06-.06,0.07-.48,0.13-.13,0.29-1,0.29-.71,0.13-.61,0.32-1,0.29-1.1,0.19-.48,0.26-.32,0.19,0,0.07-.13,0.36-.1,0.61-.06,0.36,0.06,0.19-.06,0.61,0.06,0.32,0.23ZM277.19,25.07h0.32l0.19-.1V24.91l-0.26-.19h-0.1l-0.16.26v0.1Zm0.29-.87V24l-0.1-.06-0.1.1,0.1,0.13h0.1ZM278,24.62l0.1,0.06L278.22,25l0.26-.1,0.16-.16,0-.13-0.19-.13-0.23,0-0.23.1Zm0.74-2.19V22.27l-0.35-.13v0.13l0.1,0.1,0.19,0.06h0.07Zm0.52-2.77,0.06-.06-0.13-.1-0.1.1,0.1,0Zm0.22,2.19V21.72l-0.16-.16-0.06.19,0.06,0.1h0.16ZM280,20.46l0.06-.1L280,20.23l-0.13-.06,0.06,0.29H280Zm1-3.13-0.19-.06,0,0.13,0.13,0.07,0.1-.07V17.33Zm1.55-3.87,0.13,0.06,0.07-.13-0.13-.1,0,0.1Zm2.1,10.74h0.16V24h-0.16V24.2Zm0.39-.52,0.32-.19,0-.1L285,22.94l-0.13.48L285,23.65Zm0.19-1.74L285,22l-0.06.1,0.1,0.07,0.26-.16,0.1,0,0.07,0.29,0.16-.06,0.23,0,0.36,0.32,0.13-.45V21.85l-0.48.23-0.16-.19-0.36-.16-0.1.16v0.06ZM286,25.2l0.26-.19-0.1-.23,0.19-.06,0.23,0.45,0.23,0.13V24.91l0.19-.16,0.1-.26L286.67,24l-0.2-.06-0.42.23-0.16,0-0.06.1,0.22,0.32-0.1.19-0.32-.16,0-.36-0.1,0-0.29.26,0-.39L285,24l-0.06.1,0,0.55,0.29,0.16,0.39,0,0.07,0.1-0.07.13-0.29,0,0.1,0.1h0.48Zm-0.45-2.61v0.13l0.1,0.1h0.13l0.1-.1V22.59l-0.1-.06-0.16,0Zm0.32-1.45H286V21h-0.13v0.16Zm0.19,2-0.19.26v0.16l0.23-.1,0.06-.13,0.13-.06h0.26l0.1-.07-0.1-.23-0.19-.16L286,22.72l-0.06.13L286,23v0.1Zm0.81-1.9L286.61,21l-0.06.1-0.23.1-0.07.1v0.16l0.13,0.06,0.45-.13,0.06,0.1,0.16,0.06,0.16,0,0.13-.29-0.1-.06h-0.42Zm-0.35,3.07,0.13,0.06-0.13.23h-0.16V24.33h0.13Zm0.06-3.58V20.62h0.07l0-.13-0.1,0,0,0.19Zm0.07,1.61L287,22.49l0.1,0.16L286.9,23,287,23l0.13-.32,0.06,0-0.1-.52L286.83,22l-0.1,0-0.13.16v0.1Zm0.16,1.23H287V23.33h-0.16l-0.07.13v0.06Zm0.29-3.78,0.19,0.1,0,0.39,0.23,0,0.06-.1V19.88l0.23-.22-0.29-.07-0.1-.19-0.13,0-0.07.16-0.16.16v0.06Zm0.06,6.78,0.16,0.06,0.06-.13-0.13-.06-0.06.1Zm0.23-8,0.26,0,0-.1-0.07-.13-0.23-.1-0.06.13,0,0.16ZM288.16,20l0.19-.16,0-.13-0.26.1,0,0.16Zm0.45-3.45-0.23-.13-0.06.06,0.1,0.23L288.74,17l0.16-.23-0.23-.13Zm-0.1,1.61,0.13-.06h0.42l0-.16-0.29,0-0.19.1-0.07.1Zm0.74-2H288.8l0,0.16,0.22,0,0.19-.13V16.17ZM289,15.72l0.07-.23-0.19-.07L289,15.72H289ZM289.25,17h0.23l-0.1-.19-0.13,0V17Zm0.65-2.48,0.13,0,0.1-.26,0.19-.19-0.13-.1,0,0.13-0.23.26v0.06Zm4.16,6.94,0.06,0.1-0.06,0-0.32-.19h-0.16l-0.39.71,0.16,0.23h0.13l0-.23,0.13-.07,0.48,0.23,0.23-.07,0.23,0.13,0.16-.07-0.16-.58-0.19-.16-0.1-.29h-0.07l-0.1.16v0.06ZM294,20.4l-0.36.32-0.07.13L293.71,21l0.45-.13,0.13,0.06,0.45-.26,0.26-.06,0.1-.13-0.19-.06H294Zm0.58,1.32h0.13V21.49h-0.13v0.23Z" transform="translate(-0.63)"/><path class="cls-2" d="M310.18,10.26l0.06-.07h1l0.42,0.13,0.06,0.1,0.52,0.13,0.39,0.29L313.05,11l0.71,0.74L314,11.88l0.1,0.23,0.13,0.06v0.16l0.16,0.13,0.1,1,0.1,1-0.06.52-0.13.36-0.16.87-0.29.65-0.16.16-0.19.58-0.16.06,0,0.23-0.52.77-0.77.74-0.84.58-0.45.26-0.16,0-0.13.16h-0.16v0.07l-0.94.29-0.55.13h-0.26l-0.23.1h-1l-2.07.06-0.13,0-0.39.35-0.1.23-0.1,1,0,1h0.07l0.07,0.23,0.58,0.74L305.79,25l0.32,0.16,1.1,0.19,1.07,0,0.45-.1,1-.39,1-.42,0.71-.55h0.16l0.07-.13h0.13l0.35-.39,0.29-.1,0.32-.42,0.29-.13,0.23-.32,0.42-.32,0.61-.81,0.64-.81,0.61-.81,0.42-.55,0.26-.42,0.55,0,0.45,0.06,0.45,0.42,0.13,0.42-0.19.65-0.19.19-0.1.26L317,21l-0.58.84,0,0.23L316,22.4v0.16L314.6,24l-1.32,1.32-0.42.26-0.07.1-0.23,0-0.19.19-0.81.55-0.13,0-0.16.19h-0.16v0.06l-0.52.13-0.06.1-0.52.1-1,.29-0.13,0-0.06.1-1,.13h-0.06v0.07l-0.74.06-0.22.1-1.07-.1h-0.48l-0.81-.26-0.52-.06L303,27l-0.39-.23-0.19-.19-0.26-.1L302,26.2l-0.16-.06-0.07-.23-0.42-.58-0.26-.9-0.13-1-0.07-1,0.1-1,0.13-.52,0-.52,0.23-.94,0.29-.94,0-.39,0.06-.06,0.13-.45,0.39-.71,0.39-.84,0.16-.26,0.07-.23,0.19-.13,0.13-.39h0.07l0.48-.84,0.16-.19,0.1-.26,0.71-.68,0.39-.32,0.68-.74,0.26-.29,0.39-.19,0.45-.32,0.36-.13,0.16-.19,0.48-.23,1-.29,1-.07h0.32Zm-7.55,9.81h0.16V19.78h-0.16v0.29Zm0.52-.39v0.13l0.23,0.1,0.16-.1V19.69l-0.32,0Zm1-1.29v0.13l0.06,0,0.1-.19-0.1-.06v0.06Zm0.36-1.32,0.39-.48,0.06-.19-0.22-.06-0.26,0-0.1.52L304.47,17Zm0.07,0.52,0.16,0.06,0.07-.16-0.13-.06-0.07.1Zm5.78-4.1-0.55,0-0.74.26-0.19,0-0.71.61h-0.13l-0.68.81-0.55.87-0.48.87,0,0.16h-0.1V17.2h-0.07l0,0.23-0.39.81,0,0.23,0.23,0.29,0.19,0.1h1.19l0.39,0,0.19-.16,0.26-.06,0.68-.39,0.07-.1,0.19,0,0.68-.77,0.36-.61,0.42-.94,0.39-1L311,14l-0.36-.39Zm-4.58,1.45,0.32-.1,0.1,0V14.65l-0.26,0-0.16.19v0.06Zm1.1-.65,0.06-.13L306.89,14h-0.1l-0.07.1,0.07,0.16Zm3.78-2.48,0.23,0.06,0.1-.16-0.26,0Zm0.9,1.23V12.88l-0.07-.1-0.16,0,0,0.26,0.13,0h0.07ZM312.21,16l-0.06-.19-0.16,0,0,0.13,0.13,0.1h0.06Zm-0.16-.87h0.16V14.81h-0.16V15.1Zm0.1-3.39,0.1,0.06,0.13,0,0.06-.1-0.13-.06-0.16.06v0.06Zm0.65,2.71-0.19-.06,0,0.13,0.13,0.06,0.1-.06V14.43Zm0.16-.35,0.26,0,0.26-.19-0.26-.1-0.42,0v0.16L312.92,14Z" transform="translate(-0.63)"/><path class="cls-2" d="M324.76,10.26l0.06-.07h1l0.42,0.13,0.07,0.1,0.52,0.13,0.39,0.29L327.64,11l0.71,0.74,0.19,0.16,0.1,0.23,0.13,0.06v0.16l0.16,0.13,0.1,1,0.1,1-0.06.52-0.13.36-0.16.87-0.29.64-0.16.16-0.19.58-0.16.06,0,0.23-0.52.77-0.77.74L325.8,20l-0.45.26-0.16,0-0.13.16h-0.16v0.06l-0.94.29-0.55.13h-0.26l-0.23.1h-1l-2.07.07-0.13,0-0.39.36-0.1.23-0.1,1,0,1h0.06l0.07,0.23,0.58,0.74L320.38,25l0.32,0.16,1.1,0.19,1.07,0,0.45-.1,1-.39,1-.42,0.71-.55h0.16l0.06-.13h0.13l0.36-.39,0.29-.1,0.32-.42,0.29-.13,0.23-.32,0.42-.32,0.61-.81,0.65-.81,0.61-.81,0.42-.55,0.26-.42,0.55,0,0.45,0.06,0.45,0.42,0.13,0.42-0.19.65-0.19.19-0.1.26-0.32.35-0.58.84L331,22l-0.36.36v0.16L329.18,24l-1.32,1.32-0.42.26-0.06.1-0.23,0-0.19.19-0.81.55-0.13,0-0.16.19H325.7v0.06l-0.52.13-0.06.1-0.52.1-1,.29-0.13,0-0.07.1-1,.13h-0.06v0.06l-0.74.07-0.23.1-1.06-.1h-0.49L319,27.53l-0.52-.06-1-.45-0.39-.23L317,26.59l-0.26-.1-0.13-.29-0.16-.06-0.07-.23-0.42-.58-0.26-.9-0.13-1-0.07-1,0.1-1,0.13-.52,0-.52L316,19.4l0.29-.94,0-.39,0.07-.06,0.13-.45,0.39-.71,0.39-.84,0.16-.26,0.07-.22,0.19-.13,0.13-.39h0.07l0.48-.84L318.5,14l0.1-.26,0.71-.68,0.39-.32,0.68-.74,0.26-.29,0.39-.19,0.45-.32,0.36-.13,0.16-.19,0.48-.23,1-.29,1-.06h0.32ZM317.15,24h0.16V23.85h-0.16V24Zm0.06-3.94h0.16V19.78h-0.16v0.29Zm0.52-.39v0.13l0.23,0.1,0.16-.1V19.69l-0.32,0Zm1-1.29v0.13l0.06,0,0.1-.19-0.1-.06v0.06Zm0.36-1.32,0.39-.48,0.06-.19-0.22-.06-0.26,0-0.1.52L319.05,17Zm0.06,0.52,0.16,0.06,0.07-.16-0.13-.06-0.06.1Zm5.78-4.1-0.55,0-0.74.26-0.19,0-0.71.61h-0.13l-0.68.81-0.55.87-0.48.87,0,0.16h-0.1V17.2h-0.06l0,0.23-0.39.81,0,0.23,0.23,0.29,0.19,0.1h1.19l0.39,0,0.19-.16,0.26-.06,0.68-.39,0.06-.1,0.19,0,0.68-.77,0.36-.61,0.42-.94,0.39-1,0.07-.71-0.36-.39Zm-4.58,1.45,0.32-.1,0.1,0V14.65l-0.26,0-0.16.19v0.06Zm1.1-.65,0.07-.13L321.47,14h-0.1l-0.06.1,0.07,0.16Zm3.78-2.48,0.23,0.06,0.1-.16-0.26,0Zm0.9,1.23V12.88l-0.06-.1-0.16,0L326,13l0.13,0h0.07ZM326.8,16l-0.07-.19-0.16,0,0,0.13,0.13,0.1h0.06Zm-0.16-.87h0.16V14.81h-0.16V15.1Zm0.1-3.39,0.1,0.06,0.13,0,0.07-.1-0.13-.06-0.16.06v0.06Zm0.65,2.71-0.19-.06,0,0.13,0.13,0.06,0.1-.06V14.43Zm0.16-.35,0.26,0,0.26-.19-0.26-.1-0.42,0v0.16L327.51,14Z" transform="translate(-0.63)"/><path class="cls-2" d="M340.35,25l0.13,0.1,0.23,0,0.87-.52,0.52-.26,0.77-.61,0.78-.74,0.74-.71,0.48-.58V21.56h0.07l0.13-.26,0.48-.55,0.32-.26,0-.19H346V20.17H346V20h0.07V19.88h0.1V19.72h0.06l0.07-.13h0.06V19.43h0.1l0.16-.39,0.26-.36,0.19-.1h0.58l0.48,0.19,0.26,0.29,0.1,0.48-0.16.48-0.16.23,0,0.19-0.36.35V21h-0.1l0,0.13-0.19.16-0.19.52h-0.06l0,0.13-0.19.16v0.1l-0.74.77-0.06.23-0.74.68-0.06.19-0.19,0-0.32.42-0.19.1-0.36.36-0.19.1-0.71.71h-0.16v0.07h-0.13v0.06H343l-0.16.19-0.36.1-0.1.19-0.48.19-0.16.16-0.19,0v0.1l-0.39.07-0.13.16-0.71.19-0.94.26H339l0,0.06-0.64.16-1.13,0-0.52,0-1-.16-1-.26-0.42-.06v-0.1h-0.16V27.17H334V27.11h-0.16V27L333,26.46l-0.16-.1-0.16-.23-0.07-.35,0.19-.42,0.42-.39,0.52-.16L334.25,25l0.48,0.13,0.48-.13,0.87-.64,0.48-.39,0-.19,0.23-.16V23.53l0.23-.23V23.17l0.58-.81,0.1-.1,0-.19h0.1V21.91h0.06V21.78H338l0.29-.68,0.16-.13V20.81l0.1-.1,0-.19h0.1l0.39-1,0.13-.45,0.16-.19,0-.36,0.32-.84,0.19-.71,0.26-.81,0-.36,0.06-.06,0.1-.81-0.16-1h-0.06V13.88l-0.29-.29h-0.16l-0.06-.13-0.26-.07-0.77.13v0.06h-0.13l-0.19.16-0.16,0-0.32.22-0.16.19-0.13,0-0.13.16-0.19,0-0.71.77-0.16.19-0.06.19-0.39.29-0.1.26-0.19.19-0.1.19,0,0.42-0.1.1-0.39.94-0.39,1-0.13.39-0.19.29-0.29,1.07-0.45.9-0.26.74-0.23.39-0.06.26-0.1.1-0.13.48-0.39,1-0.19.71-0.1.1-0.45.9-0.42,1-0.16.65-0.1.06-0.16.52-0.1.1-0.39.94-0.36,1-0.06.16-0.1.06-0.13.52-0.1.06-0.16.52-0.1.1,0,0.26-0.19.45v0.13h-0.1v0.16l-0.13.06v0.16h-0.06V33.3l-0.68.52h-1L326,33.75l-0.61-.06-0.06-.16h-0.13l-0.1-.23-0.13-.06V32.89H325l0.16-.52,0.06-.06,0-.29,0.36-.9,0-.13h0.1V30.82h0.06V30.69h0.06V30.53H326V30.4H326l0.13-.52,0.1-.06,0.32-1,0.42-.9,0.1-.36,0.23-.42,0-.23,0.39-.9,0-.19h0.06V25.72l0.13-.16,0.16-.52h0.06l0.26-.74,0.45-1,0.29-.94,0.13-.16,0-.23,0.45-.94,0.42-.9,0.1-.26V19.72h0.1l0.19-.81,0.32-.65,0.19-.68,0.1-.06,0.32-.9,0.36-.87,0.42-.94,0.32-.81,0.29-1,0.26-.39,0.39-1,0.19-.32V11.2l0.29-.32,0.23-.06h0.48l0.32,0.07L335.21,11h0.23l0.29,0.13,0.13,0.16H336v0.06h0.16v0.06l0.19,0,0.19,0.13,0.45,0.1,0.29,0,0.32-.13,0.42-.39,0.77-.39,0.84-.36,0.36-.1,1-.1,0.77,0,0.52,0.26h0.13l0.81,0.61,0.23,0.42,0.19,0.16,0.36,1,0.1,0.29,0.06,0.94,0,1.1L344,16l-0.19,1-0.07.52-0.07.07-0.1.42-0.35.87-0.32.94-0.36.9-0.52.94-0.52.84-0.1.29h-0.1l0,0.19-0.52.74-0.29.58-0.26.45L340.31,25Zm-11,4.26-0.1-.35-0.13,0-0.1.23,0.16,0.16h0.16Zm1.1-3.58h0.13V25.56h-0.13v0.16Zm0.29-2.94h0.35l0.16-.13-0.29-.23h-0.1l-0.13.26v0.1Zm2-3,0.07-.1-0.07-.32-0.1,0,0,0.29,0.06,0.1h0.07Zm2.71-5.68v0.1l0.23,0.13,0.1,0.23,0.32-.16V14.23L335.63,14l-0.13,0Zm1.1,10.75,0.16,0.06,0.13-.16-0.16-.13-0.1.16Zm0.58,0.94,0.23,0.06,0.13-.06V25.66l-0.29-.1,0,0.16Zm0.45-.87L337.7,25l0.07-.13-0.13-.1,0,0.1Zm0,0.52,0,0.13h0.26l0.06,0.13,0.13,0,0-.16L338,25.4l-0.23-.06-0.19.06Zm0.71-1.1h-0.13l-0.1.29h0.16l0.52-.58-0.35-.16h-0.23V24l0.13,0.26v0.06Zm0.39-1.55,0.06-.29-0.16,0-0.07.1,0.1,0.16h0.07ZM339,25.49l-0.16.23,0,0.13,0.42,0.39-0.07-.81,0.07-.16-0.23-.1L338.86,25l0.06-.1,0-.13-0.1-.06-0.07.23L339,25.43v0.07Zm1.16-3.42,0.13-.16V21.78h-0.19L340,22l0.07,0.1h0.06Zm-0.07-10.23,0.19-.1V11.68h-0.13l0,0.1Zm0,7.87h0.13V19.59h-0.13v0.13Zm0.64-2.48,0,0.16,0.1,0.06,0.16-.13-0.06-.16-0.13.06h-0.1Zm0,2.36,0,0.16,0.26,0,0.1-.07,0-.13-0.36-.06Zm0.29-7V12.49l-0.16-.16-0.06.13,0,0.13,0.1,0H341Zm0.23,1.32-0.1-.42h-0.19l-0.1.16,0,0.13,0.26,0.13h0.1Zm-0.39,4.9L341.22,19l0.07,0.1v0.16l0.16,0.19,0.06,0.23h0.07l0.06-.23-0.06-.52-0.07-.13-0.29.07-0.13-.23-0.1-.07v0.06l-0.16.16v0.06Zm0.52-1.9V17.1l0.22,0.06-0.06-.29-0.1.06h-0.06ZM341.73,13l0-.06-0.1-.23,0.19,0.1L342,13.07l-0.07.29,0.26,0.1,0.19,0.19-0.29.23h-0.16l0.23,0.45h0.06l0.13,0.29,0.19,0.06-0.1-.52,0-.13,0.32-.29,0-.32h-0.16l-0.19.1-0.13,0-0.1-.19,0-.29,0.1-.06,0.26,0,0.1-.07-0.13-.52-0.13,0-0.39.36-0.06-.1,0-.26-0.06-.1h-0.13v0.13l-0.23.48,0.13,0.1Zm-0.16,7.16,0.13,0,0.1-.13-0.19.1Zm0.23-2.58v0.16L341.93,18l0.61-.13-0.16-.48,0.06-.13h-0.16l-0.29.32h-0.1Zm0.29-2.16,0.23-.13,0-.26L342.28,15l-0.1,0-0.13.26,0,0.06v0.1Zm0.06,0.71,0.13,0.06,0.32-.1,0.07-.26-0.42,0-0.1.19v0.06Zm0.07,2,0,0.13,0.26,0,0.13-.06,0-.1-0.1-.06-0.32,0Zm0.16-2.48,0.16,0.1,0-.19-0.13,0v0.13Zm0.81-.42,0.06-.13-0.06-.16h-0.07l-0.07.1,0.07,0.16Z" transform="translate(-0.63)"/><path class="cls-1" d="M6.45,13.86c-0.11-1.4-.86-1.8-1.49-1.8a1.37,1.37,0,0,0-1.4,1.6c0,2.77,5.68,4.1,5.68,8.52,0,2.68-1.8,4.17-4.42,4.17S0.74,24.27.63,21.83l2.66-.38C3.4,23.1,4.06,23.91,5,23.91a1.44,1.44,0,0,0,1.62-1.49c0-3.22-5.68-4.08-5.68-8.74,0-2.59,1.58-4.06,4.33-4.06,2.28,0,3.63,1.65,3.88,3.94Z" transform="translate(-0.63)"/><path class="cls-1" d="M13,12.28h-2.7V9.84h8.2v2.43h-2.7V26.12H13V12.28Z" transform="translate(-0.63)"/><path class="cls-1" d="M20.13,9.84h2.79V22.13c0,1.19.47,1.78,1.49,1.78s1.49-.59,1.49-1.78V9.84H28.7V22c0,2.79-1.62,4.33-4.28,4.33S20.13,24.81,20.13,22V9.84Z" transform="translate(-0.63)"/><path class="cls-1" d="M33,26.12h-2.7l3-16.27h3.47l3,16.27h-2.7l-0.5-3.61H33.52Zm0.9-6h2.25l-1.1-7h0Z" transform="translate(-0.63)"/><path class="cls-1" d="M44.21,26.12H41.41V9.84h3.92c3.13,0,4.73,1.33,4.73,4.8,0,2.61-1,3.67-2,4.1l2.37,7.37H47.63l-2-6.74a13.39,13.39,0,0,1-1.44.07v6.67Zm0-9h1c1.51,0,2.07-.56,2.07-2.5s-0.56-2.5-2.07-2.5h-1v5Z" transform="translate(-0.63)"/><path class="cls-1" d="M53.91,12.28H51.2V9.84h8.2v2.43H56.7V26.12H53.91V12.28Z" transform="translate(-0.63)"/><path class="cls-1" d="M67.68,26.12H65L68,9.84h3.47l3,16.27h-2.7l-0.5-3.61H68.18Zm0.9-6h2.25l-1.1-7h0Z" transform="translate(-0.63)"/><path class="cls-1" d="M76.07,9.84h4.15c2.88,0,4.42,1.58,4.42,4.91V21.2c0,3.34-1.53,4.91-4.42,4.91H76.07V9.84Zm2.79,14h1c1.49,0,2-.56,2-2.28V14.42c0-1.71-.52-2.28-2-2.28h-1V23.82Z" transform="translate(-0.63)"/><path class="cls-1" d="M89,26.12h-2.7l3-16.27h3.47l3,16.27H93l-0.5-3.61H89.46Zm0.9-6h2.25l-1.1-7h0Z" transform="translate(-0.63)"/><path class="cls-1" d="M108.55,9.84V26.12h-2.43V13.41h0l-2.52,12.71H102.2L99.67,13.41h0V26.12H97.19V9.84h3.67l2,9.51h0l2-9.51h3.67Z" transform="translate(-0.63)"/><path class="cls-1" d="M116.22,13.86c-0.11-1.4-.86-1.8-1.49-1.8a1.37,1.37,0,0,0-1.4,1.6c0,2.77,5.68,4.1,5.68,8.52,0,2.68-1.8,4.17-4.42,4.17s-4.08-2.07-4.19-4.51l2.66-.38c0.11,1.65.77,2.46,1.67,2.46a1.44,1.44,0,0,0,1.62-1.49c0-3.22-5.68-4.08-5.68-8.74,0-2.59,1.58-4.06,4.33-4.06,2.28,0,3.63,1.65,3.88,3.94Z" transform="translate(-0.63)"/></svg>